<svg width="32" height="32" viewBox="0 0 32 32" fill="none" xmlns="http://www.w3.org/2000/svg">
<path d="M32 16C32 24.8366 24.8366 32 16 32C7.16344 32 0 24.8366 0 16C0 7.16344 7.16344 0 16 0C24.8366 0 32 7.16344 32 16Z" fill="#0729A4"/>
<path d="M11.871 22C11.871 22 12.9032 29.5 16.5161 29.5C20.129 29.5 20.6452 22 20.6452 22L21.6774 4H10.3226L11.871 22Z" fill="#06248D"/>
<path d="M6.23387 18.3242C6.3414 18.2357 6.42608 18.1211 6.4879 17.9805C6.55242 17.8398 6.58468 17.6927 6.58468 17.5391C6.58468 17.3828 6.55376 17.2617 6.49194 17.1758C6.53495 17.1029 6.625 17.0664 6.7621 17.0664C6.89919 17.0664 7.00403 17.1094 7.07661 17.1953C7.15188 17.2812 7.18952 17.4141 7.18952 17.5938C7.18952 17.7708 7.13978 17.9557 7.04032 18.1484C6.94355 18.3385 6.80645 18.5052 6.62903 18.6484C6.23656 18.9609 5.74597 19.1172 5.15726 19.1172C4.45565 19.1172 3.87903 18.9036 3.42742 18.4766C2.96774 18.0391 2.69086 17.4154 2.59677 16.6055C2.55108 16.2357 2.41398 15.9961 2.18548 15.8867C2.31183 15.8294 2.39919 15.7695 2.44758 15.707C2.52554 15.6003 2.57527 15.4557 2.59677 15.2734C2.62097 15.0885 2.66532 14.8971 2.72984 14.6992C2.79435 14.5013 2.87903 14.3138 2.98387 14.1367C3.0914 13.957 3.21909 13.793 3.36694 13.6445C3.51478 13.4935 3.68414 13.3633 3.875 13.2539C4.27823 13.0221 4.74866 12.9062 5.28629 12.9062C5.81048 12.9062 6.24462 13.0339 6.58871 13.2891C6.89785 13.5208 7.09812 13.8359 7.18952 14.2344C7.23253 14.4323 7.28763 14.5547 7.35484 14.6016C7.38172 14.6224 7.41532 14.6419 7.45564 14.6602C7.375 14.7904 7.25269 14.862 7.08871 14.875C7.01613 14.8854 6.93817 14.8711 6.85484 14.832C6.70699 15.0768 6.49866 15.207 6.22984 15.2227C6.17339 15.2279 6.13038 15.2174 6.10081 15.1914C6.17339 15.0977 6.20699 14.9883 6.20161 14.8633C6.20161 14.8398 6.19758 14.8164 6.18952 14.793C6.06586 14.8164 5.96102 14.806 5.875 14.7617C5.73521 14.6836 5.66263 14.599 5.65726 14.5078C5.65726 14.487 5.66129 14.4661 5.66935 14.4453C5.83602 14.4922 5.99462 14.4557 6.14516 14.3359C6.24731 14.2552 6.2957 14.1641 6.29032 14.0625C6.28495 13.9609 6.26075 13.8724 6.21774 13.7969C6.17473 13.7214 6.1129 13.6536 6.03226 13.5938C5.84946 13.4531 5.62097 13.3828 5.34677 13.3828C4.87903 13.3828 4.57527 13.5859 4.43548 13.9922C4.38978 14.1276 4.36694 14.2865 4.36694 14.4688V15.2578C4.36694 15.5521 4.51478 15.7617 4.81048 15.8867C4.51478 16.0247 4.36694 16.25 4.36694 16.5625V17.5273C4.36694 18.0221 4.56989 18.349 4.97581 18.5078C5.10753 18.5573 5.25269 18.582 5.41129 18.582C5.56989 18.582 5.71909 18.5612 5.85887 18.5195C6.00134 18.4779 6.12634 18.4128 6.23387 18.3242ZM3.5121 17.9648C3.55242 17.9492 3.57258 17.9219 3.57258 17.8828C3.57258 17.8255 3.54435 17.7357 3.4879 17.6133C3.34543 17.2982 3.27419 16.7227 3.27419 15.8867C3.27419 15.2773 3.34946 14.7591 3.5 14.332C3.51882 14.2669 3.52823 14.2174 3.52823 14.1836C3.52823 14.1497 3.51075 14.1276 3.47581 14.1172C3.34946 14.2708 3.25941 14.4232 3.20565 14.5742C3.10618 14.8503 3.02688 15.224 2.96774 15.6953C2.95968 15.763 2.88038 15.8268 2.72984 15.8867C2.88038 15.9518 2.95968 16.0182 2.96774 16.0859C3.06452 16.8932 3.18817 17.4323 3.33871 17.7031C3.38978 17.7995 3.44758 17.8867 3.5121 17.9648Z" fill="white"/>
<path d="M25.7581 18.957C25.6237 19.0378 25.4718 19.0781 25.3024 19.0781C25.1331 19.0781 24.9879 19.0365 24.8669 18.9531C24.7298 19.0365 24.6035 19.0781 24.4879 19.0781C24.3723 19.0781 24.2769 19.0677 24.2016 19.0469C24.1263 19.0286 24.0618 19.0026 24.0081 18.9688C23.8898 18.901 23.8306 18.8164 23.8306 18.7148C23.8306 18.6628 23.8454 18.6172 23.875 18.5781C23.9341 18.6224 24.0094 18.6445 24.1008 18.6445C24.3401 18.6445 24.5054 18.5456 24.5968 18.3477V16.4375C24.5968 16.2344 24.4919 16.0807 24.2823 15.9766L24.1048 15.8867C24.3441 15.7799 24.4946 15.6641 24.5565 15.5391C24.5833 15.4818 24.5968 15.4115 24.5968 15.3281V13.6797C24.5054 13.4792 24.3401 13.3789 24.1008 13.3789C24.0094 13.3789 23.9341 13.401 23.875 13.4453C23.8454 13.4062 23.8306 13.362 23.8306 13.3125C23.8306 13.2604 23.8454 13.2122 23.875 13.168C23.9073 13.1237 23.9516 13.0859 24.0081 13.0547C24.129 12.9818 24.2675 12.9453 24.4234 12.9453C24.582 12.9453 24.7298 12.987 24.8669 13.0703C24.9879 12.987 25.1331 12.9453 25.3024 12.9453C25.4745 12.9453 25.6263 12.987 25.7581 13.0703C25.8844 12.987 26.0255 12.9453 26.1815 12.9453C26.4099 12.9453 26.5726 13.0195 26.6694 13.168C26.7016 13.2148 26.7177 13.2643 26.7177 13.3164C26.7177 13.3685 26.7016 13.4115 26.6694 13.4453C26.6102 13.401 26.5363 13.3789 26.4476 13.3789C26.2406 13.3789 26.1021 13.4766 26.0323 13.6719V15.7344H27.9395V13.6719C27.8696 13.4766 27.7312 13.3789 27.5242 13.3789C27.4355 13.3789 27.3616 13.401 27.3024 13.4453C27.2702 13.4115 27.254 13.3685 27.254 13.3164C27.254 13.2643 27.2688 13.2148 27.2984 13.168C27.3306 13.1211 27.371 13.0807 27.4194 13.0469C27.5215 12.9792 27.6452 12.9453 27.7903 12.9453C27.9462 12.9453 28.0874 12.987 28.2137 13.0703C28.3508 12.987 28.5027 12.9453 28.6694 12.9453C28.8387 12.9453 28.9839 12.987 29.1048 13.0703C29.2366 12.987 29.3616 12.9453 29.4798 12.9453C29.5981 12.9453 29.6949 12.9557 29.7702 12.9766C29.8454 12.9948 29.9113 13.0208 29.9677 13.0547C30.0833 13.1224 30.1411 13.207 30.1411 13.3086C30.1411 13.3607 30.1263 13.4062 30.0968 13.4453C30.0376 13.401 29.9624 13.3789 29.871 13.3789C29.6317 13.3789 29.4664 13.4792 29.375 13.6797V15.3281C29.375 15.5312 29.4785 15.6888 29.6855 15.8008C29.7446 15.832 29.8051 15.8607 29.8669 15.8867C29.7056 15.9622 29.5968 16.0234 29.5403 16.0703C29.4301 16.1693 29.375 16.2917 29.375 16.4375V18.3477C29.4664 18.5456 29.6317 18.6445 29.871 18.6445C29.9624 18.6445 30.0376 18.6224 30.0968 18.5781C30.1263 18.6172 30.1411 18.6628 30.1411 18.7148C30.1411 18.7643 30.125 18.8112 30.0927 18.8555C30.0632 18.8997 30.0215 18.9375 29.9677 18.9688C29.8441 19.0417 29.7016 19.0781 29.5403 19.0781C29.3817 19.0781 29.2366 19.0365 29.1048 18.9531C28.9839 19.0365 28.8387 19.0781 28.6694 19.0781C28.5027 19.0781 28.3508 19.0365 28.2137 18.9531C28.0874 19.0365 27.9462 19.0781 27.7903 19.0781C27.5618 19.0781 27.3978 19.0039 27.2984 18.8555C27.2688 18.8086 27.254 18.7591 27.254 18.707C27.254 18.6549 27.2702 18.612 27.3024 18.5781C27.3616 18.6224 27.4355 18.6445 27.5242 18.6445C27.7312 18.6445 27.8696 18.5469 27.9395 18.3516V16.293H26.0323V18.3516C26.1021 18.5469 26.2406 18.6445 26.4476 18.6445C26.5363 18.6445 26.6102 18.6224 26.6694 18.5781C26.7016 18.612 26.7177 18.6549 26.7177 18.707C26.7177 18.7591 26.7016 18.8086 26.6694 18.8555C26.6398 18.9023 26.5995 18.9427 26.5484 18.9766C26.4516 19.0443 26.3293 19.0781 26.1815 19.0781C26.0282 19.0781 25.8871 19.0378 25.7581 18.957ZM28.2742 15.0508C28.2715 15.3294 28.2702 15.7917 28.2702 16.4375C28.2702 17.0833 28.2796 17.4635 28.2984 17.5781C28.3333 17.7969 28.4032 17.9258 28.5081 17.9648V17.457C28.5081 16.7643 28.5134 16.3737 28.5242 16.2852C28.5349 16.194 28.5457 16.1302 28.5565 16.0938C28.5806 16.0026 28.6626 15.9336 28.8024 15.8867C28.6788 15.8503 28.5968 15.776 28.5565 15.6641C28.5242 15.5391 28.5081 15.0234 28.5081 14.1172C28.4032 14.1641 28.3387 14.2578 28.3145 14.3984C28.2903 14.5521 28.2769 14.7695 28.2742 15.0508ZM24.9839 17.9648C25.1129 17.9154 25.1855 17.7448 25.2016 17.4531C25.2151 17.1615 25.2218 16.7578 25.2218 16.2422C25.2218 15.7266 25.2204 15.3841 25.2177 15.2148C25.2177 15.043 25.2164 14.9049 25.2137 14.8008C25.2056 14.4961 25.1761 14.3112 25.125 14.2461C25.0766 14.181 25.0296 14.138 24.9839 14.1172C24.9839 15.0234 24.9677 15.5391 24.9355 15.6641C24.8978 15.7682 24.8065 15.8424 24.6613 15.8867C24.8226 15.9414 24.914 16.0078 24.9355 16.0859C24.9677 16.2109 24.9839 16.668 24.9839 17.457V17.9648Z" fill="white"/>
<path d="M15.8823 6.89118L16.1749 7.03608L16.7377 7.18139L16.7354 6.20279L15.6395 5.57458L15.6405 6.26849C15.8053 6.48799 15.9165 6.71288 15.8823 6.89118Z" fill="white"/>
<path d="M17.6997 24.2326C17.7102 24.0326 17.3796 23.7959 16.9038 23.5543C16.9056 23.9356 16.9068 24.3313 16.9091 24.7337C17.5755 24.5193 17.6949 24.3313 17.6997 24.2326Z" fill="white"/>
<path d="M14.4512 20.8911C14.4905 21.202 14.9497 21.5049 15.6472 21.8282C15.617 21.0021 15.582 20.2634 15.5431 19.6067C14.7455 20.1943 14.4131 20.5865 14.4512 20.8911Z" fill="white"/>
<path d="M16.4416 23.3367C16.3479 23.2943 16.2518 23.2532 16.1543 23.2125C16.1783 24.0881 16.1985 25.048 16.2137 26.0978C16.2859 26.1681 16.3764 26.2274 16.456 26.2698C16.449 25.2294 16.4441 24.2547 16.4416 23.3367Z" fill="white"/>
<path d="M13.9347 6.88199C13.4575 6.72989 13.399 6.49639 13.3601 6.34229C13.3356 6.24529 13.3317 6.23049 13.2535 6.21389C13.1239 6.18339 12.4873 6.19869 12.3022 6.66379C12.1431 7.06249 12.248 8.05749 14.7318 10.2387C14.8879 10.376 15.0358 10.5069 15.1839 10.6381L15.18 7.17539C14.8726 7.14699 14.4655 7.05219 13.9347 6.88199Z" fill="white"/>
<path d="M16.9244 17.6101C17.7985 17.2063 18.2698 16.7679 18.3534 16.2736C18.4675 15.5987 17.862 14.8485 17.0202 14.0542C16.9742 15.0362 16.9436 16.21 16.9244 17.6101Z" fill="white"/>
<path d="M20.0363 27.3672L16.5161 31L17.1814 30.9023C18.9999 30.2331 19.3825 29.175 20.0247 27.3991L20.0363 27.3672Z" fill="white"/>
<path d="M18.0154 8.2651L17.8581 7.2632C17.573 7.4458 17.2869 7.8406 17.1772 8.0563L16.739 7.958L16.7382 7.3679L16.5287 7.409L16.5528 7.7928L16.4313 7.83L16.0404 7.2256L15.7512 7.0896C15.7197 7.1121 15.6839 7.1312 15.6415 7.1456L15.6462 11.0505C16.0227 11.3886 16.3743 11.7093 16.6988 12.0126C16.9332 9.6001 17.3446 8.8399 18.0154 8.2651Z" fill="#FCFDFF"/>
<path d="M16.2266 27.0645C16.2301 27.3823 16.2336 27.705 16.2366 28.038C16.3092 28.1685 16.4377 28.1439 16.4688 28.0567C16.4662 27.7576 16.4644 27.4729 16.4623 27.1815C16.4072 27.1239 16.328 27.0899 16.2266 27.0645Z" fill="#FCFDFF"/>
<path d="M15.6483 12.8372L15.6496 13.8742L14.9841 13.4375L14.8241 13.7963C15.3413 14.172 15.8753 15.1544 16.1171 22.0353C16.2207 22.0797 16.3291 22.1238 16.4389 22.1687C16.4354 18.3277 16.4761 15.6068 16.5797 13.6518C16.3563 13.4523 16.1236 13.2506 15.8879 13.0473C15.8089 12.9782 15.7283 12.9067 15.6483 12.8372Z" fill="#FCFDFF"/>
<mask id="mask0_209_2" style="mask-type:alpha" maskUnits="userSpaceOnUse" x="9" y="3" width="14" height="28">
<path d="M22.7096 3H9.29028C9.29028 3 9.80641 31 16.5161 31C23.2258 31 22.7096 3 22.7096 3Z" fill="black"/>
</mask>
<g mask="url(#mask0_209_2)">
<path d="M23.3275 1H9.29028V36.8231C29.6393 25.8148 24.7448 4.2055 23.3275 1ZM19.7221 16.4495C19.5834 17.4272 18.4999 18.1584 16.9104 18.9391C16.9026 19.9668 16.8994 21.0992 16.9012 22.3531C16.9603 22.3768 17.0162 22.3997 17.077 22.4234C18.6111 23.0241 18.8686 23.7061 18.8147 24.1725C18.7281 24.9228 17.809 25.4871 16.9142 25.6887C16.916 25.9751 16.9173 26.2564 16.9195 26.5529C17.1307 26.7469 17.2584 27.0036 17.247 27.268C17.2374 27.5002 17.1211 27.695 16.9288 27.8221C16.9296 27.9102 16.93 27.9941 16.931 28.0838V28.1092L16.9253 28.1338C16.8657 28.3964 16.6436 28.571 16.3733 28.571C16.1215 28.571 15.9011 28.4201 15.8015 28.1847C15.7643 28.1965 15.7205 28.2118 15.6689 28.2321C15.4726 28.3084 15.3681 28.3389 15.295 28.3389C15.1879 28.3389 15.1464 28.2728 15.1333 28.2465C15.0834 28.1407 15.1709 28.0288 15.2648 27.9254C15.4345 27.739 15.5508 27.661 15.7699 27.556C15.7677 27.3501 15.7659 27.1392 15.7638 26.9392C15.6995 26.9155 15.6356 26.8935 15.5753 26.8545C15.0515 26.5299 14.8263 26.1852 14.9059 25.8302C14.9941 25.4354 15.4554 25.1583 15.7346 25.0364C15.7209 24.3179 15.7048 23.6473 15.6869 23.0225C15.3984 22.9085 15.108 22.7988 14.8398 22.6975C13.4444 22.168 13.1764 21.4059 13.193 20.8574C13.2275 19.7123 14.4712 18.5978 15.4454 18.2063C15.176 14.919 14.7856 14.2933 14.4135 14.0684L14.2451 13.9667L14.7817 12.764L15.1871 13.031L15.1866 12.4337C14.9295 12.2049 14.6777 11.9745 14.442 11.7419C14.0859 11.3899 12.4773 9.7471 12.2931 9.5023C11.8366 8.8982 11.516 8.347 11.3407 7.8654C11.0677 7.116 11.1268 6.3373 11.4951 5.8337C11.8873 5.2969 12.597 5.0991 13.5141 5.2783C13.7248 5.3656 13.8228 5.3363 13.9666 5.2995C14.0511 5.2783 14.1469 5.2546 14.2566 5.2546C14.442 5.2546 14.6239 5.3228 14.8285 5.469C14.8876 5.5113 15.023 5.621 15.1784 5.7655L15.177 4.7908L17.1969 5.9477L17.1994 7.2444C17.4208 7.0017 17.7028 6.778 18.0049 6.7302L18.2358 6.6933L18.5105 8.4458L18.4104 8.5263C17.7448 9.0625 17.3425 9.7802 17.1225 12.4143C19.0037 14.2232 19.8668 15.4299 19.7221 16.4495Z" fill="white"/>
<path d="M9.29028 36.8134V12C11.8745 25.0836 12.3998 32.2568 16.5161 31.5C14.2604 33.791 12.6687 34.9508 9.29028 36.8134Z" fill="black"/>
</g>
</svg>
