<svg width="410" height="84" viewBox="0 0 410 84" fill="none" xmlns="http://www.w3.org/2000/svg">
<ellipse cx="40" cy="41.9995" rx="40" ry="39.375" fill="#0729A4"/>
<path d="M29.6774 57.75C29.6774 57.75 32.258 77.4375 41.2903 77.4375C50.3225 77.4375 51.6128 57.75 51.6128 57.75L54.1935 10.5H25.8064L29.6774 57.75Z" fill="#06248D"/>
<path d="M39.7056 18.0894L40.437 18.4697L41.8439 18.8512L41.8382 16.2823L39.0986 14.6333L39.101 16.4548C39.5131 17.031 39.791 17.6213 39.7056 18.0894Z" fill="white"/>
<path d="M44.249 63.6096C44.2753 63.0846 43.4487 62.4633 42.2593 61.8291C42.2637 62.83 42.2668 63.8687 42.2724 64.925C43.9385 64.3622 44.2368 63.8687 44.249 63.6096Z" fill="white"/>
<path d="M36.1279 54.8379C36.2262 55.654 37.3741 56.4491 39.1178 57.2977C39.0425 55.1292 38.955 53.1901 38.8577 51.4663C36.8636 53.0088 36.0327 54.0383 36.1279 54.8379Z" fill="white"/>
<path d="M41.1039 61.2586C40.8699 61.1473 40.6296 61.0395 40.3857 60.9326C40.4459 63.2311 40.4962 65.7508 40.5344 68.5065C40.7148 68.6911 40.9411 68.8467 41.1401 68.958C41.1225 66.227 41.1104 63.6684 41.1039 61.2586Z" fill="white"/>
<path d="M34.8367 18.0648C33.6439 17.6655 33.4976 17.0526 33.4003 16.6481C33.3391 16.3934 33.3293 16.3546 33.1337 16.311C32.8099 16.231 31.2184 16.2711 30.7557 17.492C30.3577 18.5386 30.6202 21.1505 36.8295 26.8761C37.2199 27.2365 37.5895 27.5801 37.9598 27.9245L37.95 18.835C37.1815 18.7604 36.1639 18.5116 34.8367 18.0648Z" fill="white"/>
<path d="M42.311 46.2263C44.4963 45.1664 45.6746 44.0156 45.8837 42.718C46.1688 40.9464 44.655 38.9771 42.5505 36.8921C42.4357 39.4698 42.359 42.5511 42.311 46.2263Z" fill="white"/>
<mask id="mask0_30_175" style="mask-type:alpha" maskUnits="userSpaceOnUse" x="23" y="7" width="34" height="75">
<path d="M56.7742 7.87451H23.2258C23.2258 7.87451 24.5162 81.3745 41.2903 81.3745C58.0645 81.3745 56.7742 7.87451 56.7742 7.87451Z" fill="black"/>
</mask>
<g mask="url(#mask0_30_175)">
<path d="M55.4839 66.9367C59.1303 64.3505 37.1809 88.5582 32.2581 86.6236" stroke="white" stroke-width="5"/>
<path d="M58.319 2.62451H23.2258V96.6602C74.0984 67.7634 61.8622 11.0389 58.319 2.62451ZM49.3053 43.1795C48.9587 45.7459 46.2498 47.6653 42.2762 49.7147C42.2565 52.4124 42.2485 55.3849 42.2532 58.6764C42.4008 58.7386 42.5407 58.7987 42.6927 58.8609C46.5278 60.4378 47.1716 62.228 47.0369 63.4523C46.8204 65.4219 44.5226 66.9032 42.2857 67.4324C42.2901 68.1842 42.2934 68.9226 42.2989 69.7009C42.8269 70.2101 43.1461 70.884 43.1177 71.578C43.0937 72.1875 42.8029 72.6989 42.3221 73.0325C42.3242 73.2638 42.3252 73.484 42.3275 73.7195V73.7862L42.3133 73.8507C42.1644 74.5401 41.6091 74.9984 40.9334 74.9984C40.3038 74.9984 39.7528 74.6023 39.5038 73.9844C39.4109 74.0153 39.3014 74.0555 39.1724 74.1088C38.6816 74.3091 38.4204 74.3891 38.2377 74.3891C37.9698 74.3891 37.8661 74.2156 37.8333 74.1466C37.7087 73.8689 37.9272 73.5751 38.1621 73.3037C38.5863 72.8144 38.8772 72.6096 39.4248 72.334C39.4194 71.7935 39.415 71.2399 39.4096 70.7149C39.2488 70.6527 39.0891 70.595 38.9383 70.4926C37.6289 69.6405 37.0658 68.7357 37.2648 67.8038C37.4854 66.7674 38.6387 66.0401 39.3365 65.7201C39.3025 63.834 39.2622 62.0737 39.2173 60.4336C38.496 60.1343 37.7701 59.8464 37.0996 59.5805C33.6111 58.1905 32.9412 56.19 32.9827 54.7502C33.0689 51.7443 36.1781 48.8187 38.6137 47.791C37.9402 39.1619 36.9642 37.5194 36.0338 36.9291L35.6129 36.6621L36.9543 33.505L37.9678 34.2059L37.9667 32.638C37.3239 32.0374 36.6945 31.4326 36.1051 30.822C35.215 29.898 31.1933 25.5856 30.7329 24.9431C29.5915 23.3573 28.7902 21.9104 28.3518 20.6462C27.6694 18.679 27.8171 16.6349 28.7378 15.313C29.7185 13.9039 31.4927 13.3847 33.7853 13.8551C34.312 14.0842 34.5572 14.0073 34.9167 13.9107C35.1278 13.8551 35.3673 13.7928 35.6416 13.7928C36.1051 13.7928 36.5598 13.9719 37.0713 14.3556C37.2191 14.4667 37.5577 14.7546 37.9461 15.134L37.9427 12.5754L42.9923 15.6122L42.9987 19.0161C43.552 18.379 44.2571 17.7918 45.0124 17.6663L45.5897 17.5694L46.2764 22.1697L46.0261 22.3811C44.3621 23.7886 43.3564 25.6725 42.8065 32.5871C47.5094 37.3354 49.6671 40.503 49.3053 43.1795Z" fill="white"/>
<path d="M45.039 21.6965L44.6457 19.0665C43.9329 19.5459 43.2178 20.5822 42.9435 21.1484L41.848 20.8904L41.8459 19.3414L41.3223 19.4493L41.3824 20.4567L41.0787 20.5544L40.1014 18.9678L39.3786 18.6108C39.2999 18.6699 39.2103 18.72 39.1042 18.7578L39.1161 29.0082C40.0573 29.8957 40.9362 30.7376 41.7476 31.5337C42.3334 25.2009 43.3621 23.2054 45.039 21.6965Z" fill="#FCFDFF"/>
<path d="M40.5659 71.0444C40.5747 71.8787 40.5835 72.7257 40.591 73.5999C40.7726 73.9424 41.0939 73.8779 41.1716 73.649C41.1651 72.8638 41.1605 72.1165 41.1553 71.3516C41.0175 71.2004 40.8196 71.1111 40.5659 71.0444Z" fill="#FCFDFF"/>
<path d="M23.2258 96.6351V31.5C29.6863 65.8443 30.9996 84.674 41.2903 82.6875C35.651 88.7013 31.6719 91.7458 23.2258 96.6351Z" fill="black"/>
<path d="M39.1209 33.6968L39.124 36.4189L37.4603 35.2726L37.0603 36.2144C38.3535 37.2006 39.6884 39.7794 40.2928 57.8418C40.5519 57.9583 40.8229 58.0741 41.0975 58.192C41.0887 48.1093 41.1904 40.967 41.4495 35.8351C40.8908 35.3114 40.3091 34.782 39.7199 34.2483C39.5222 34.0669 39.3209 33.8792 39.1209 33.6968Z" fill="#FCFDFF"/>
</g>
<path d="M78.25 42C78.25 64.3109 61.0454 82.25 40 82.25C18.9546 82.25 1.75 64.3109 1.75 42C1.75 19.6891 18.9546 1.75 40 1.75C61.0454 1.75 78.25 19.6891 78.25 42Z" stroke="#0729A4" stroke-width="3.5"/>
<path d="M107.664 57.712C106.992 57.904 106.128 58.064 105.072 58.192C104.048 58.32 103.088 58.384 102.192 58.384C99.248 58.384 97.104 57.936 95.76 57.04C94.416 56.144 93.504 54.56 93.024 52.288C92.576 49.984 92.352 46.384 92.352 41.488C92.352 36.624 92.576 33.056 93.024 30.784C93.504 28.48 94.416 26.88 95.76 25.984C97.136 25.056 99.28 24.592 102.192 24.592C103.152 24.592 104.128 24.656 105.12 24.784C106.144 24.912 106.96 25.088 107.568 25.312V28.96C105.872 28.672 104.384 28.528 103.104 28.528C101.056 28.528 99.632 28.8 98.832 29.344C98.032 29.888 97.504 30.992 97.248 32.656C97.024 34.32 96.912 37.264 96.912 41.488C96.912 45.712 97.024 48.656 97.248 50.32C97.504 51.984 98.032 53.088 98.832 53.632C99.632 54.176 101.056 54.448 103.104 54.448C104.896 54.448 106.416 54.304 107.664 54.016V57.712ZM118.724 58.384C116.1 58.384 114.196 58.048 113.012 57.376C111.86 56.672 111.108 55.488 110.756 53.824C110.436 52.16 110.276 49.472 110.276 45.76C110.276 42.048 110.436 39.36 110.756 37.696C111.108 36.032 111.86 34.864 113.012 34.192C114.196 33.488 116.1 33.136 118.724 33.136C121.348 33.136 123.236 33.488 124.388 34.192C125.572 34.864 126.324 36.032 126.644 37.696C126.996 39.36 127.172 42.048 127.172 45.76C127.172 49.472 126.996 52.16 126.644 53.824C126.324 55.488 125.572 56.672 124.388 57.376C123.236 58.048 121.348 58.384 118.724 58.384ZM118.724 54.784C120.1 54.784 121.06 54.592 121.604 54.208C122.18 53.792 122.532 53.008 122.66 51.856C122.82 50.704 122.9 48.672 122.9 45.76C122.9 42.848 122.82 40.816 122.66 39.664C122.532 38.512 122.18 37.744 121.604 37.36C121.06 36.944 120.1 36.736 118.724 36.736C117.316 36.736 116.34 36.944 115.796 37.36C115.252 37.744 114.9 38.512 114.74 39.664C114.612 40.784 114.548 42.816 114.548 45.76C114.548 48.704 114.612 50.752 114.74 51.904C114.9 53.024 115.252 53.792 115.796 54.208C116.34 54.592 117.316 54.784 118.724 54.784ZM130.989 58V22.336H135.261V58H130.989ZM155.426 47.104H143.33C143.33 49.472 143.442 51.168 143.666 52.192C143.89 53.184 144.354 53.872 145.058 54.256C145.794 54.608 147.026 54.784 148.754 54.784C150.514 54.784 152.514 54.624 154.754 54.304V57.664C153.986 57.856 152.946 58.016 151.634 58.144C150.354 58.304 149.106 58.384 147.89 58.384C145.234 58.384 143.282 58 142.034 57.232C140.818 56.464 140.018 55.248 139.634 53.584C139.282 51.888 139.106 49.296 139.106 45.808C139.106 42.352 139.266 39.792 139.586 38.128C139.938 36.432 140.706 35.184 141.89 34.384C143.074 33.552 144.978 33.136 147.602 33.136C150.098 33.136 151.89 33.52 152.978 34.288C154.066 35.056 154.738 36.256 154.994 37.888C155.282 39.52 155.426 42.144 155.426 45.76V47.104ZM147.506 36.64C146.226 36.64 145.298 36.816 144.722 37.168C144.178 37.52 143.81 38.192 143.618 39.184C143.458 40.176 143.362 41.824 143.33 44.128H151.346V43.744C151.346 41.568 151.234 40 151.01 39.04C150.818 38.048 150.466 37.408 149.954 37.12C149.442 36.8 148.626 36.64 147.506 36.64ZM169.286 58.384C167.942 58.384 166.774 58.144 165.782 57.664C164.822 57.152 164.118 56.192 163.67 54.784H163.382L163.19 58H159.35V22.336H163.622V36.352H163.862C164.31 35.2 164.982 34.384 165.878 33.904C166.774 33.392 167.926 33.136 169.334 33.136C171.126 33.136 172.486 33.504 173.414 34.24C174.374 34.976 175.046 36.24 175.43 38.032C175.814 39.824 176.006 42.416 176.006 45.808C176.006 49.232 175.798 51.84 175.382 53.632C174.998 55.392 174.326 56.624 173.366 57.328C172.438 58.032 171.078 58.384 169.286 58.384ZM167.606 54.544C168.918 54.544 169.83 54.368 170.342 54.016C170.886 53.632 171.254 52.864 171.446 51.712C171.638 50.56 171.734 48.576 171.734 45.76C171.734 42.976 171.638 41.008 171.446 39.856C171.254 38.672 170.886 37.888 170.342 37.504C169.798 37.12 168.886 36.928 167.606 36.928C166.614 36.928 165.83 37.12 165.254 37.504C164.71 37.856 164.326 38.464 164.102 39.328C163.91 40.032 163.782 40.864 163.718 41.824C163.654 42.784 163.622 44.096 163.622 45.76C163.622 47.424 163.638 48.704 163.67 49.6C163.734 50.464 163.846 51.248 164.006 51.952C164.23 52.88 164.63 53.552 165.206 53.968C165.782 54.352 166.582 54.544 167.606 54.544ZM179.906 33.52H183.746L183.938 37.936H184.226C184.674 36.112 185.394 34.864 186.386 34.192C187.378 33.488 188.706 33.136 190.37 33.136V37.456C188.77 37.456 187.522 37.776 186.626 38.416C185.73 39.024 185.09 40 184.706 41.344C184.354 42.656 184.178 44.416 184.178 46.624V58H179.906V33.52ZM200.549 58.384C197.925 58.384 196.021 58.048 194.837 57.376C193.685 56.672 192.933 55.488 192.581 53.824C192.261 52.16 192.101 49.472 192.101 45.76C192.101 42.048 192.261 39.36 192.581 37.696C192.933 36.032 193.685 34.864 194.837 34.192C196.021 33.488 197.925 33.136 200.549 33.136C203.173 33.136 205.061 33.488 206.213 34.192C207.397 34.864 208.149 36.032 208.469 37.696C208.821 39.36 208.997 42.048 208.997 45.76C208.997 49.472 208.821 52.16 208.469 53.824C208.149 55.488 207.397 56.672 206.213 57.376C205.061 58.048 203.173 58.384 200.549 58.384ZM200.549 54.784C201.925 54.784 202.885 54.592 203.429 54.208C204.005 53.792 204.357 53.008 204.485 51.856C204.645 50.704 204.725 48.672 204.725 45.76C204.725 42.848 204.645 40.816 204.485 39.664C204.357 38.512 204.005 37.744 203.429 37.36C202.885 36.944 201.925 36.736 200.549 36.736C199.141 36.736 198.165 36.944 197.621 37.36C197.077 37.744 196.725 38.512 196.565 39.664C196.437 40.784 196.373 42.816 196.373 45.76C196.373 48.704 196.437 50.752 196.565 51.904C196.725 53.024 197.077 53.792 197.621 54.208C198.165 54.592 199.141 54.784 200.549 54.784ZM220.542 58.384C217.918 58.384 216.014 58.048 214.83 57.376C213.678 56.672 212.926 55.488 212.574 53.824C212.254 52.16 212.094 49.472 212.094 45.76C212.094 42.048 212.254 39.36 212.574 37.696C212.926 36.032 213.678 34.864 214.83 34.192C216.014 33.488 217.918 33.136 220.542 33.136C223.166 33.136 225.054 33.488 226.206 34.192C227.39 34.864 228.142 36.032 228.462 37.696C228.814 39.36 228.99 42.048 228.99 45.76C228.99 49.472 228.814 52.16 228.462 53.824C228.142 55.488 227.39 56.672 226.206 57.376C225.054 58.048 223.166 58.384 220.542 58.384ZM220.542 54.784C221.918 54.784 222.878 54.592 223.422 54.208C223.998 53.792 224.35 53.008 224.478 51.856C224.638 50.704 224.718 48.672 224.718 45.76C224.718 42.848 224.638 40.816 224.478 39.664C224.35 38.512 223.998 37.744 223.422 37.36C222.878 36.944 221.918 36.736 220.542 36.736C219.134 36.736 218.158 36.944 217.614 37.36C217.07 37.744 216.718 38.512 216.558 39.664C216.43 40.784 216.366 42.816 216.366 45.76C216.366 48.704 216.43 50.752 216.558 51.904C216.718 53.024 217.07 53.792 217.614 54.208C218.158 54.592 219.134 54.784 220.542 54.784ZM244.519 58L239.239 47.488H237.079V58H232.807V22.336H237.079V43.888H239.239L244.519 33.52H249.031L242.743 45.328L249.175 58H244.519ZM266.9 47.104H254.804C254.804 49.472 254.916 51.168 255.14 52.192C255.364 53.184 255.828 53.872 256.532 54.256C257.268 54.608 258.5 54.784 260.228 54.784C261.988 54.784 263.988 54.624 266.228 54.304V57.664C265.46 57.856 264.42 58.016 263.108 58.144C261.828 58.304 260.58 58.384 259.364 58.384C256.708 58.384 254.756 58 253.508 57.232C252.292 56.464 251.492 55.248 251.108 53.584C250.756 51.888 250.58 49.296 250.58 45.808C250.58 42.352 250.74 39.792 251.06 38.128C251.412 36.432 252.18 35.184 253.364 34.384C254.548 33.552 256.452 33.136 259.076 33.136C261.572 33.136 263.364 33.52 264.452 34.288C265.54 35.056 266.212 36.256 266.468 37.888C266.756 39.52 266.9 42.144 266.9 45.76V47.104ZM258.98 36.64C257.7 36.64 256.772 36.816 256.196 37.168C255.652 37.52 255.284 38.192 255.092 39.184C254.932 40.176 254.836 41.824 254.804 44.128H262.82V43.744C262.82 41.568 262.708 40 262.484 39.04C262.292 38.048 261.94 37.408 261.428 37.12C260.916 36.8 260.1 36.64 258.98 36.64Z" fill="#0729A4"/>
<path d="M293.835 58V43.408H283.899V58H279.387V24.976H283.899V39.28H293.835V24.976H298.395V58H293.835ZM310.992 58.384C308.368 58.384 306.464 58.048 305.28 57.376C304.128 56.672 303.376 55.488 303.024 53.824C302.704 52.16 302.544 49.472 302.544 45.76C302.544 42.048 302.704 39.36 303.024 37.696C303.376 36.032 304.128 34.864 305.28 34.192C306.464 33.488 308.368 33.136 310.992 33.136C313.616 33.136 315.504 33.488 316.656 34.192C317.84 34.864 318.592 36.032 318.912 37.696C319.264 39.36 319.44 42.048 319.44 45.76C319.44 49.472 319.264 52.16 318.912 53.824C318.592 55.488 317.84 56.672 316.656 57.376C315.504 58.048 313.616 58.384 310.992 58.384ZM310.992 54.784C312.368 54.784 313.328 54.592 313.872 54.208C314.448 53.792 314.8 53.008 314.928 51.856C315.088 50.704 315.168 48.672 315.168 45.76C315.168 42.848 315.088 40.816 314.928 39.664C314.8 38.512 314.448 37.744 313.872 37.36C313.328 36.944 312.368 36.736 310.992 36.736C309.584 36.736 308.608 36.944 308.064 37.36C307.52 37.744 307.168 38.512 307.008 39.664C306.88 40.784 306.816 42.816 306.816 45.76C306.816 48.704 306.88 50.752 307.008 51.904C307.168 53.024 307.52 53.792 308.064 54.208C308.608 54.592 309.584 54.784 310.992 54.784ZM329.449 58.384C328.393 58.384 327.225 58.32 325.945 58.192C324.665 58.064 323.577 57.92 322.681 57.76V54.4C324.601 54.688 326.633 54.832 328.777 54.832C329.897 54.832 330.745 54.704 331.321 54.448C331.897 54.192 332.265 53.824 332.425 53.344C332.617 52.832 332.713 52.128 332.713 51.232C332.713 50.176 332.649 49.424 332.521 48.976C332.425 48.496 332.233 48.192 331.945 48.064C331.657 47.904 331.161 47.776 330.457 47.68L325.849 47.008C324.441 46.784 323.465 46.192 322.921 45.232C322.377 44.24 322.105 42.608 322.105 40.336C322.105 37.552 322.745 35.664 324.025 34.672C325.337 33.648 327.273 33.136 329.833 33.136C330.889 33.136 331.977 33.2 333.097 33.328C334.249 33.456 335.161 33.616 335.833 33.808V37.168C334.233 36.848 332.361 36.688 330.217 36.688C328.777 36.688 327.769 36.928 327.193 37.408C326.617 37.856 326.329 38.784 326.329 40.192C326.329 41.152 326.377 41.856 326.473 42.304C326.601 42.72 326.793 43.008 327.049 43.168C327.337 43.328 327.801 43.456 328.441 43.552L332.665 44.128C333.657 44.256 334.441 44.528 335.017 44.944C335.625 45.328 336.089 46 336.409 46.96C336.729 47.888 336.889 49.248 336.889 51.04C336.889 53.824 336.297 55.744 335.113 56.8C333.929 57.856 332.041 58.384 329.449 58.384ZM340.344 33.52H344.184L344.376 36.784H344.664C345.112 35.376 345.816 34.416 346.776 33.904C347.768 33.392 348.936 33.136 350.28 33.136C352.072 33.136 353.432 33.488 354.36 34.192C355.32 34.896 355.992 36.144 356.376 37.936C356.792 39.696 357 42.288 357 45.712C357 49.104 356.808 51.696 356.424 53.488C356.04 55.28 355.368 56.544 354.408 57.28C353.48 58.016 352.12 58.384 350.328 58.384C348.92 58.384 347.768 58.144 346.872 57.664C345.976 57.152 345.304 56.304 344.856 55.12H344.616V67.216H340.344V33.52ZM348.6 54.592C349.912 54.592 350.824 54.416 351.336 54.064C351.88 53.68 352.248 52.912 352.44 51.76C352.632 50.576 352.728 48.576 352.728 45.76C352.728 42.944 352.632 40.96 352.44 39.808C352.248 38.656 351.88 37.904 351.336 37.552C350.824 37.168 349.912 36.976 348.6 36.976C347.544 36.976 346.728 37.184 346.152 37.6C345.576 38.016 345.176 38.736 344.952 39.76C344.792 40.432 344.696 41.2 344.664 42.064C344.632 42.896 344.616 44.128 344.616 45.76C344.616 48.416 344.696 50.24 344.856 51.232C345.08 52.48 345.48 53.36 346.056 53.872C346.632 54.352 347.48 54.592 348.6 54.592ZM360.804 26.896V22.336H365.22V26.896H360.804ZM360.9 58V33.52H365.172V58H360.9ZM371.225 58V37.12H367.865V33.52H371.225V26.416H375.545V33.52H379.577V37.12H375.545V58H371.225ZM386.653 58.384C384.509 58.384 382.957 57.856 381.997 56.8C381.069 55.712 380.605 53.84 380.605 51.184C380.605 49.328 380.781 47.888 381.133 46.864C381.517 45.808 382.141 45.056 383.005 44.608C383.901 44.128 385.149 43.888 386.749 43.888C388.189 43.888 390.125 43.952 392.557 44.08V42.544C392.557 40.688 392.429 39.376 392.173 38.608C391.917 37.808 391.453 37.296 390.781 37.072C390.141 36.848 389.037 36.736 387.469 36.736C386.125 36.736 384.221 36.88 381.757 37.168V33.856C383.901 33.376 386.205 33.136 388.669 33.136C390.973 33.136 392.701 33.424 393.853 34C395.005 34.576 395.789 35.536 396.205 36.88C396.621 38.192 396.829 40.112 396.829 42.64V58H392.941L392.749 54.784H392.461C391.981 56.224 391.229 57.184 390.205 57.664C389.181 58.144 387.997 58.384 386.653 58.384ZM388.285 54.784C389.181 54.784 389.917 54.672 390.493 54.448C391.069 54.224 391.517 53.76 391.837 53.056C392.317 51.936 392.557 50.368 392.557 48.352V46.864H387.949C387.053 46.864 386.381 46.96 385.933 47.152C385.517 47.344 385.229 47.712 385.069 48.256C384.909 48.8 384.829 49.664 384.829 50.848C384.829 51.968 384.909 52.8 385.069 53.344C385.261 53.888 385.597 54.272 386.077 54.496C386.557 54.688 387.293 54.784 388.285 54.784ZM401.285 58V22.336H405.557V58H401.285Z" fill="#263056"/>
<path d="M14.8452 47.3528C15.0991 47.137 15.2991 46.8577 15.4451 46.5149C15.5974 46.1721 15.6736 45.8135 15.6736 45.439C15.6736 45.0581 15.6006 44.7629 15.4546 44.5535C15.5562 44.3757 15.7688 44.2869 16.0925 44.2869C16.4163 44.2869 16.6638 44.3916 16.8352 44.6011C17.0129 44.8105 17.1018 45.1343 17.1018 45.5723C17.1018 46.0039 16.9844 46.4546 16.7495 46.9243C16.521 47.3877 16.1973 47.7939 15.7783 48.1431C14.8516 48.9048 13.6931 49.2856 12.303 49.2856C10.6462 49.2856 9.28467 48.7651 8.21826 47.7241C7.13281 46.6577 6.479 45.1375 6.25684 43.1633C6.14893 42.262 5.8252 41.678 5.28564 41.4114C5.58398 41.2717 5.79028 41.1257 5.90454 40.9734C6.08862 40.7131 6.20605 40.3608 6.25684 39.9165C6.31396 39.4658 6.4187 38.9993 6.57104 38.5168C6.72339 38.0344 6.92334 37.5774 7.1709 37.1458C7.4248 36.7078 7.72632 36.3079 8.07544 35.946C8.42456 35.5779 8.82446 35.2605 9.27515 34.9939C10.2273 34.429 11.3381 34.1465 12.6077 34.1465C13.8455 34.1465 14.8706 34.4575 15.6831 35.0796C16.4131 35.6445 16.886 36.4126 17.1018 37.3838C17.2034 37.8662 17.3335 38.1646 17.4922 38.2788C17.5557 38.3296 17.635 38.3772 17.7302 38.4216C17.5398 38.739 17.251 38.9136 16.8638 38.9453C16.6924 38.9707 16.5083 38.9358 16.3115 38.8406C15.9624 39.4373 15.4705 39.7546 14.8357 39.7927C14.7024 39.8054 14.6008 39.78 14.531 39.7166C14.7024 39.488 14.7817 39.2214 14.769 38.9167C14.769 38.8596 14.7595 38.8025 14.7405 38.7454C14.4485 38.8025 14.2009 38.7771 13.9978 38.6692C13.6677 38.4788 13.4963 38.2725 13.4836 38.0503C13.4836 37.9995 13.4932 37.9487 13.5122 37.8979C13.9058 38.0122 14.2803 37.9233 14.6357 37.6313C14.877 37.4346 14.9912 37.2124 14.9785 36.9648C14.9658 36.7173 14.9087 36.5015 14.8071 36.3174C14.7056 36.1333 14.5596 35.9683 14.3691 35.8223C13.9375 35.4795 13.3979 35.3081 12.7505 35.3081C11.646 35.3081 10.9287 35.8032 10.5986 36.7935C10.4907 37.1235 10.4368 37.5107 10.4368 37.9551V39.8784C10.4368 40.5957 10.7859 41.1067 11.4841 41.4114C10.7859 41.7478 10.4368 42.2969 10.4368 43.0586V45.4104C10.4368 46.6165 10.916 47.4131 11.8745 47.8003C12.1855 47.9209 12.5283 47.9812 12.9028 47.9812C13.2773 47.9812 13.6296 47.9304 13.9597 47.8289C14.2961 47.7273 14.5913 47.5686 14.8452 47.3528ZM8.41821 46.4768C8.51343 46.4387 8.56104 46.3721 8.56104 46.2769C8.56104 46.1372 8.49438 45.9182 8.36108 45.6199C8.02466 44.8518 7.85645 43.449 7.85645 41.4114C7.85645 39.926 8.03418 38.6628 8.38965 37.6218C8.43408 37.4631 8.4563 37.3425 8.4563 37.26C8.4563 37.1775 8.41504 37.1235 8.33252 37.0981C8.03418 37.4727 7.82153 37.844 7.69458 38.2122C7.45972 38.885 7.27246 39.7959 7.13281 40.9448C7.11377 41.1099 6.92651 41.2654 6.57104 41.4114C6.92651 41.5701 7.11377 41.7319 7.13281 41.897C7.36133 43.8647 7.65332 45.1787 8.00879 45.8389C8.12939 46.0737 8.26587 46.2864 8.41821 46.4768ZM65.709 48.8953C65.3916 49.092 65.033 49.1904 64.6331 49.1904C64.2332 49.1904 63.8904 49.0889 63.6047 48.8857C63.281 49.0889 62.9827 49.1904 62.7097 49.1904C62.4368 49.1904 62.2114 49.165 62.0337 49.1143C61.856 49.0698 61.7036 49.0063 61.5767 48.9238C61.2974 48.7588 61.1577 48.5525 61.1577 48.3049C61.1577 48.178 61.1926 48.0669 61.2625 47.9717C61.4021 48.0796 61.5798 48.1335 61.7957 48.1335C62.3606 48.1335 62.751 47.8923 62.9668 47.4099V42.7539C62.9668 42.2588 62.7192 41.8843 62.2241 41.6304L61.8052 41.4114C62.3701 41.1511 62.7256 40.8687 62.8716 40.564C62.9351 40.4243 62.9668 40.2529 62.9668 40.0498V36.0317C62.751 35.543 62.3606 35.2986 61.7957 35.2986C61.5798 35.2986 61.4021 35.3525 61.2625 35.4604C61.1926 35.3652 61.1577 35.2573 61.1577 35.1367C61.1577 35.0098 61.1926 34.8923 61.2625 34.7844C61.3386 34.6765 61.4434 34.5845 61.5767 34.5083C61.8623 34.3306 62.1892 34.2417 62.5574 34.2417C62.9319 34.2417 63.281 34.3433 63.6047 34.5464C63.8904 34.3433 64.2332 34.2417 64.6331 34.2417C65.0393 34.2417 65.3979 34.3433 65.709 34.5464C66.0073 34.3433 66.3406 34.2417 66.7087 34.2417C67.2483 34.2417 67.6323 34.4226 67.8608 34.7844C67.937 34.8987 67.9751 35.0193 67.9751 35.1462C67.9751 35.2732 67.937 35.3779 67.8608 35.4604C67.7212 35.3525 67.5466 35.2986 67.3372 35.2986C66.8484 35.2986 66.5215 35.5366 66.3564 36.0127V41.04H70.8601V36.0127C70.6951 35.5366 70.3682 35.2986 69.8794 35.2986C69.6699 35.2986 69.4954 35.3525 69.3557 35.4604C69.2795 35.3779 69.2415 35.2732 69.2415 35.1462C69.2415 35.0193 69.2764 34.8987 69.3462 34.7844C69.4224 34.6702 69.5176 34.5718 69.6318 34.4893C69.873 34.3242 70.165 34.2417 70.5078 34.2417C70.876 34.2417 71.2092 34.3433 71.5076 34.5464C71.8313 34.3433 72.1899 34.2417 72.5835 34.2417C72.9834 34.2417 73.3262 34.3433 73.6118 34.5464C73.9229 34.3433 74.218 34.2417 74.4973 34.2417C74.7766 34.2417 75.0051 34.2671 75.1829 34.3179C75.3606 34.3623 75.5161 34.4258 75.6494 34.5083C75.9224 34.6733 76.0588 34.8796 76.0588 35.1272C76.0588 35.2542 76.0239 35.3652 75.9541 35.4604C75.8145 35.3525 75.6367 35.2986 75.4209 35.2986C74.856 35.2986 74.4656 35.543 74.2498 36.0317V40.0498C74.2498 40.5449 74.4941 40.929 74.9829 41.2019C75.1226 41.2781 75.2654 41.3479 75.4114 41.4114C75.0305 41.5955 74.7734 41.7446 74.6401 41.8589C74.3799 42.1001 74.2498 42.3984 74.2498 42.7539V47.4099C74.4656 47.8923 74.856 48.1335 75.4209 48.1335C75.6367 48.1335 75.8145 48.0796 75.9541 47.9717C76.0239 48.0669 76.0588 48.178 76.0588 48.3049C76.0588 48.4255 76.0208 48.5398 75.9446 48.6477C75.8748 48.7556 75.7764 48.8477 75.6494 48.9238C75.3574 49.1016 75.021 49.1904 74.6401 49.1904C74.2656 49.1904 73.9229 49.0889 73.6118 48.8857C73.3262 49.0889 72.9834 49.1904 72.5835 49.1904C72.1899 49.1904 71.8313 49.0889 71.5076 48.8857C71.2092 49.0889 70.876 49.1904 70.5078 49.1904C69.9683 49.1904 69.5811 49.0095 69.3462 48.6477C69.2764 48.5334 69.2415 48.4128 69.2415 48.2859C69.2415 48.1589 69.2795 48.0542 69.3557 47.9717C69.4954 48.0796 69.6699 48.1335 69.8794 48.1335C70.3682 48.1335 70.6951 47.8955 70.8601 47.4194V42.4016H66.3564V47.4194C66.5215 47.8955 66.8484 48.1335 67.3372 48.1335C67.5466 48.1335 67.7212 48.0796 67.8608 47.9717C67.937 48.0542 67.9751 48.1589 67.9751 48.2859C67.9751 48.4128 67.937 48.5334 67.8608 48.6477C67.791 48.762 67.6958 48.8604 67.5752 48.9429C67.3467 49.1079 67.0579 49.1904 66.7087 49.1904C66.3469 49.1904 66.0137 49.092 65.709 48.8953ZM71.6504 39.3738C71.644 40.053 71.6409 41.1797 71.6409 42.7539C71.6409 44.3281 71.6631 45.2549 71.7075 45.5342C71.79 46.0674 71.9551 46.3816 72.2026 46.4768V45.239C72.2026 43.5505 72.2153 42.5984 72.2407 42.3826C72.2661 42.1604 72.2915 42.0049 72.3169 41.916C72.374 41.6938 72.5676 41.5256 72.8977 41.4114C72.6057 41.3225 72.4121 41.1416 72.3169 40.8687C72.2407 40.564 72.2026 39.3071 72.2026 37.0981C71.9551 37.2124 71.8027 37.4409 71.7456 37.7837C71.6885 38.1582 71.6567 38.6882 71.6504 39.3738ZM63.8809 46.4768C64.1855 46.3562 64.3569 45.9404 64.395 45.2295C64.4268 44.5186 64.4426 43.5347 64.4426 42.2778C64.4426 41.021 64.4395 40.1863 64.4331 39.7737C64.4331 39.3547 64.4299 39.0183 64.4236 38.7644C64.4045 38.0217 64.3347 37.571 64.2141 37.4124C64.0999 37.2537 63.9888 37.1489 63.8809 37.0981C63.8809 39.3071 63.8428 40.564 63.7666 40.8687C63.6777 41.1226 63.4619 41.3035 63.1191 41.4114C63.5 41.5447 63.7158 41.7065 63.7666 41.897C63.8428 42.2017 63.8809 43.3157 63.8809 45.239V46.4768Z" fill="white"/>
</svg>
