<svg width="166" height="62" viewBox="0 0 166 62" fill="none" xmlns="http://www.w3.org/2000/svg">
<path d="M58.3766 30C58.3766 46.5685 45.3086 60 29.1883 60C13.0681 60 0 46.5685 0 30C0 13.4315 13.0681 0 29.1883 0C45.3086 0 58.3766 13.4315 58.3766 30Z" fill="#0729A4"/>
<path d="M21.6559 41.25C21.6559 41.25 23.539 55.3125 30.1299 55.3125C36.7208 55.3125 37.6623 41.25 37.6623 41.25L39.5455 7.5H18.8312L21.6559 41.25Z" fill="#06248D"/>
<path d="M28.9738 13.754L29.5075 14.0143L30.5341 14.2754L30.53 12.5172L28.5309 11.3885L28.5326 12.6352C28.8333 13.0296 29.0361 13.4337 28.9738 13.754Z" fill="white"/>
<path d="M32.2892 44.91C32.3084 44.5507 31.7052 44.1255 30.8373 43.6914C30.8405 44.3764 30.8427 45.0874 30.8469 45.8103C32.0626 45.4251 32.2803 45.0874 32.2892 44.91Z" fill="white"/>
<path d="M26.3628 38.9066C26.4346 39.4652 27.2722 40.0094 28.5446 40.5902C28.4896 39.106 28.4258 37.7788 28.3548 36.599C26.8997 37.6547 26.2933 38.3593 26.3628 38.9066Z" fill="white"/>
<path d="M29.9937 43.3005C29.8229 43.2243 29.6476 43.1505 29.4696 43.0774C29.5135 44.6505 29.5502 46.3751 29.5781 48.2612C29.7097 48.3875 29.8749 48.494 30.02 48.5702C30.0072 46.701 29.9984 44.9498 29.9937 43.3005Z" fill="white"/>
<path d="M25.4206 13.7374C24.5502 13.4642 24.4434 13.0446 24.3724 12.7678C24.3278 12.5935 24.3206 12.5669 24.1779 12.5371C23.9416 12.4823 22.7803 12.5098 22.4426 13.3454C22.1522 14.0617 22.3437 15.8494 26.8747 19.7682C27.1596 20.0148 27.4293 20.25 27.6995 20.4857L27.6924 14.2646C27.1316 14.2135 26.3891 14.0432 25.4206 13.7374Z" fill="white"/>
<path d="M30.8746 33.0118C32.4693 32.2863 33.3291 31.4987 33.4816 30.6106C33.6897 29.3981 32.5851 28.0503 31.0494 26.6232C30.9656 28.3875 30.9097 30.4964 30.8746 33.0118Z" fill="white"/>
<path d="M32.8649 16.2223L32.5779 14.4223C32.0578 14.7503 31.536 15.4596 31.3358 15.8472L30.5364 15.6705L30.5349 14.6104L30.1528 14.6842L30.1967 15.3737L29.9751 15.4406L29.2619 14.3547L28.7345 14.1104C28.677 14.1508 28.6117 14.1851 28.5343 14.211L28.543 21.2266C29.2297 21.8341 29.8711 22.4102 30.4632 22.9552C30.8906 18.6208 31.6413 17.255 32.8649 16.2223Z" fill="#FCFDFF"/>
<path d="M29.6016 49.9978C29.608 50.5688 29.6144 51.1485 29.6198 51.7468C29.7524 51.9813 29.9868 51.9371 30.0435 51.7804C30.0388 51.2431 30.0354 50.7316 30.0317 50.208C29.9311 50.1045 29.7867 50.0434 29.6016 49.9978Z" fill="#FCFDFF"/>
<path d="M28.5469 24.4367L28.5491 26.2998L27.3351 25.5152L27.0432 26.1598C27.9868 26.8348 28.961 28.5998 29.402 40.9622C29.5911 41.042 29.7888 41.1212 29.9892 41.2019C29.9828 34.301 30.057 29.4126 30.246 25.9002C29.8383 25.5418 29.4139 25.1794 28.984 24.8141C28.8397 24.69 28.6928 24.5615 28.5469 24.4367Z" fill="#FCFDFF"/>
<mask id="mask0_22_8" style="mask-type:alpha" maskUnits="userSpaceOnUse" x="16" y="6" width="26" height="52">
<path d="M41.4285 6.76294H16.948C16.948 6.76294 17.8896 57.0685 30.1298 57.0685C42.3701 57.0685 41.4285 6.76294 41.4285 6.76294Z" fill="black"/>
</mask>
<g mask="url(#mask0_22_8)">
<path d="M38 48L30 58L31.512 57.7312C35.6448 55.8889 36.5143 52.9765 37.9738 48.0878L38 48Z" fill="white"/>
<path d="M16.948 67.513V22.9326C21.6622 46.4389 22.6206 59.3265 30.1298 57.9669C26.0148 62.0829 23.1112 64.1666 16.948 67.513Z" fill="black"/>
<path d="M42.5558 3.16968H16.948V67.5305C54.0701 47.7527 45.1413 8.92877 42.5558 3.16968ZM35.9784 30.9267C35.7255 32.6833 33.7488 33.997 30.8492 35.3996C30.8349 37.246 30.829 39.2805 30.8324 41.5333C30.9401 41.5758 31.0422 41.617 31.1531 41.6596C33.9516 42.7388 34.4214 43.9641 34.3231 44.8021C34.1651 46.1501 32.4884 47.1639 30.8561 47.5261C30.8593 48.0407 30.8618 48.5461 30.8657 49.0788C31.251 49.4273 31.484 49.8885 31.4633 50.3635C31.4457 50.7807 31.2335 51.1307 30.8827 51.359C30.8842 51.5173 30.8849 51.668 30.8866 51.8292V51.8748L30.8763 51.919C30.7676 52.3908 30.3624 52.7045 29.8694 52.7045C29.4099 52.7045 29.0079 52.4334 28.8261 52.0105C28.7583 52.0317 28.6785 52.0592 28.5843 52.0956C28.2262 52.2327 28.0356 52.2875 27.9023 52.2875C27.7068 52.2875 27.6311 52.1688 27.6072 52.1215C27.5162 51.9314 27.6757 51.7304 27.8471 51.5446C28.1567 51.2097 28.3689 51.0696 28.7685 50.8809C28.7646 50.511 28.7614 50.1321 28.7574 49.7728C28.6401 49.7302 28.5235 49.6907 28.4135 49.6206C27.4581 49.0374 27.0472 48.4181 27.1923 47.7803C27.3533 47.071 28.1949 46.5732 28.7041 46.3542C28.6793 45.0633 28.6499 43.8585 28.6171 42.7359C28.0908 42.5311 27.5611 42.334 27.0718 42.152C24.5262 41.2007 24.0374 39.8315 24.0677 38.8461C24.1306 36.7887 26.3994 34.7864 28.1767 34.083C27.6852 28.1769 26.973 27.0528 26.2941 26.6487L25.987 26.466L26.9658 24.3052L27.7053 24.7849L27.7046 23.7118C27.2355 23.3007 26.7762 22.8868 26.3461 22.4689C25.6966 21.8365 22.7619 18.885 22.426 18.4452C21.5931 17.3598 21.0084 16.3695 20.6884 15.5043C20.1905 14.1579 20.2983 12.7588 20.9701 11.854C21.6857 10.8896 22.9804 10.5342 24.6533 10.8562C25.0377 11.013 25.2166 10.9604 25.4789 10.8943C25.6329 10.8562 25.8077 10.8136 26.0079 10.8136C26.3461 10.8136 26.6779 10.9361 27.0511 11.1988C27.159 11.2748 27.4061 11.4719 27.6895 11.7315L27.687 9.98034L31.3717 12.0589L31.3764 14.3885C31.7802 13.9525 32.2946 13.5506 32.8458 13.4647L33.2671 13.3984L33.7682 16.547L33.5855 16.6916C32.3713 17.655 31.6374 18.9444 31.2361 23.6769C34.6679 26.9269 36.2424 29.0948 35.9784 30.9267Z" fill="white"/>
</g>
<path d="M69.075 9.32505C69.725 9.32505 70.425 9.39171 71.175 9.52505C71.9417 9.64172 72.3917 9.70838 72.525 9.72505L72.475 11.6C71.0083 11.3334 69.875 11.2 69.075 11.2C67.9417 11.2 67.125 11.4334 66.625 11.9C66.125 12.3667 65.875 13.1417 65.875 14.225V21.375C65.875 22.4584 66.1167 23.2334 66.6 23.7C67.1 24.15 67.925 24.375 69.075 24.375C69.875 24.375 71.0083 24.2417 72.475 23.975L72.525 25.9C72.3917 25.9167 71.9417 25.9834 71.175 26.1C70.425 26.2334 69.725 26.3 69.075 26.3C67.1583 26.3 65.7917 25.8917 64.975 25.0751C64.1583 24.2584 63.75 22.9834 63.75 21.25V14.375C63.75 12.6417 64.1583 11.3667 64.975 10.55C65.7917 9.73338 67.1583 9.32505 69.075 9.32505Z" fill="#0729A4"/>
<path d="M79.5455 13.5C81.0288 13.5 82.1288 13.9 82.8455 14.7C83.5788 15.4834 83.9455 16.6 83.9455 18.05V21.75C83.9455 23.2 83.5788 24.325 82.8455 25.125C82.1288 25.9084 81.0288 26.3 79.5455 26.3C78.0622 26.3 76.9538 25.9084 76.2205 25.125C75.5038 24.325 75.1455 23.2 75.1455 21.75V18.05C75.1455 16.6 75.5038 15.4834 76.2205 14.7C76.9538 13.9 78.0622 13.5 79.5455 13.5ZM79.5455 15.275C78.8288 15.275 78.2705 15.5 77.8705 15.95C77.4705 16.4 77.2705 17.0417 77.2705 17.875V21.925C77.2705 22.7584 77.4705 23.4 77.8705 23.85C78.2705 24.3 78.8288 24.525 79.5455 24.525C80.2622 24.525 80.8205 24.3 81.2205 23.85C81.6205 23.4 81.8205 22.7584 81.8205 21.925V17.85C81.8205 17.0167 81.6205 16.3834 81.2205 15.95C80.8205 15.5 80.2622 15.275 79.5455 15.275Z" fill="#0729A4"/>
<path d="M89.3125 8.92505V26H87.1875V8.92505H89.3125Z" fill="#0729A4"/>
<path d="M96.8027 13.5C98.2027 13.5 99.2694 13.8834 100.003 14.65C100.736 15.4167 101.103 16.525 101.103 17.975V20.55H94.6777V22.025C94.6777 22.875 94.8777 23.4917 95.2777 23.875C95.6944 24.2417 96.3444 24.425 97.2277 24.425C98.0944 24.425 99.1777 24.2917 100.478 24.025L100.528 25.875C98.9777 26.1584 97.8694 26.3 97.2027 26.3C95.5527 26.3 94.3611 25.9417 93.6277 25.225C92.9111 24.5084 92.5527 23.4 92.5527 21.9V17.975C92.5527 16.525 92.9027 15.4167 93.6027 14.65C94.3194 13.8834 95.3861 13.5 96.8027 13.5ZM96.8027 15.275C96.1527 15.275 95.6361 15.4834 95.2527 15.9C94.8694 16.3 94.6777 16.8834 94.6777 17.65V18.85H98.9777V17.725C98.9777 16.925 98.7777 16.3167 98.3777 15.9C97.9944 15.4834 97.4694 15.275 96.8027 15.275Z" fill="#0729A4"/>
<path d="M105.984 15.425C106.418 14.8084 106.918 14.3334 107.484 14C108.051 13.6667 108.643 13.5 109.259 13.5C110.293 13.5 111.093 13.8667 111.659 14.6C112.226 15.3167 112.509 16.3667 112.509 17.75V21.7C112.509 23.2167 112.151 24.3667 111.434 25.15C110.718 25.9167 109.609 26.3 108.109 26.3C106.643 26.3 105.568 25.925 104.884 25.175C104.201 24.425 103.859 23.2834 103.859 21.75V8.92505H105.984V15.425ZM108.759 15.4C108.276 15.4 107.784 15.5834 107.284 15.95C106.784 16.3167 106.351 16.8167 105.984 17.45V22C105.984 22.8167 106.168 23.4417 106.534 23.875C106.918 24.3084 107.443 24.525 108.109 24.525C109.626 24.525 110.384 23.6667 110.384 21.95V18.05C110.384 16.2834 109.843 15.4 108.759 15.4Z" fill="#0729A4"/>
<path d="M121.077 13.5C121.31 13.5 121.494 13.5167 121.627 13.55V15.95C121.377 15.9 121.052 15.875 120.652 15.875C119.485 15.875 118.56 16.4584 117.877 17.625V26H115.752V13.8H117.752V15.625C118.202 14.9417 118.702 14.4167 119.252 14.05C119.819 13.6834 120.427 13.5 121.077 13.5Z" fill="#0729A4"/>
<path d="M127.861 13.5C129.344 13.5 130.444 13.9 131.161 14.7C131.894 15.4834 132.261 16.6 132.261 18.05V21.75C132.261 23.2 131.894 24.325 131.161 25.125C130.444 25.9084 129.344 26.3 127.861 26.3C126.378 26.3 125.269 25.9084 124.536 25.125C123.819 24.325 123.461 23.2 123.461 21.75V18.05C123.461 16.6 123.819 15.4834 124.536 14.7C125.269 13.9 126.378 13.5 127.861 13.5ZM127.861 15.275C127.144 15.275 126.586 15.5 126.186 15.95C125.786 16.4 125.586 17.0417 125.586 17.875V21.925C125.586 22.7584 125.786 23.4 126.186 23.85C126.586 24.3 127.144 24.525 127.861 24.525C128.578 24.525 129.136 24.3 129.536 23.85C129.936 23.4 130.136 22.7584 130.136 21.925V17.85C130.136 17.0167 129.936 16.3834 129.536 15.95C129.136 15.5 128.578 15.275 127.861 15.275Z" fill="#0729A4"/>
<path d="M139.653 13.5C141.136 13.5 142.236 13.9 142.953 14.7C143.686 15.4834 144.053 16.6 144.053 18.05V21.75C144.053 23.2 143.686 24.325 142.953 25.125C142.236 25.9084 141.136 26.3 139.653 26.3C138.17 26.3 137.061 25.9084 136.328 25.125C135.611 24.325 135.253 23.2 135.253 21.75V18.05C135.253 16.6 135.611 15.4834 136.328 14.7C137.061 13.9 138.17 13.5 139.653 13.5ZM139.653 15.275C138.936 15.275 138.378 15.5 137.978 15.95C137.578 16.4 137.378 17.0417 137.378 17.875V21.925C137.378 22.7584 137.578 23.4 137.978 23.85C138.378 24.3 138.936 24.525 139.653 24.525C140.37 24.525 140.928 24.3 141.328 23.85C141.728 23.4 141.928 22.7584 141.928 21.925V17.85C141.928 17.0167 141.728 16.3834 141.328 15.95C140.928 15.5 140.37 15.275 139.653 15.275Z" fill="#0729A4"/>
<path d="M149.42 8.92505V19.15L153.42 13.8H155.795L151.645 19.15L156.095 26H153.545L149.42 19.45V26H147.295V8.92505H149.42Z" fill="#0729A4"/>
<path d="M161.598 13.5C162.998 13.5 164.064 13.8834 164.798 14.65C165.531 15.4167 165.898 16.525 165.898 17.975V20.55H159.473V22.025C159.473 22.875 159.673 23.4917 160.073 23.875C160.489 24.2417 161.139 24.425 162.023 24.425C162.889 24.425 163.973 24.2917 165.273 24.025L165.323 25.875C163.773 26.1584 162.664 26.3 161.998 26.3C160.348 26.3 159.156 25.9417 158.423 25.225C157.706 24.5084 157.348 23.4 157.348 21.9V17.975C157.348 16.525 157.698 15.4167 158.398 14.65C159.114 13.8834 160.181 13.5 161.598 13.5ZM161.598 15.275C160.948 15.275 160.431 15.4834 160.048 15.9C159.664 16.3 159.473 16.8834 159.473 17.65V18.85H163.773V17.725C163.773 16.925 163.573 16.3167 163.173 15.9C162.789 15.4834 162.264 15.275 161.598 15.275Z" fill="#0729A4"/>
<path d="M76.14 37.66V56H73.76V47.6H66.48V56H64.1V37.66H66.48V45.472H73.76V37.66H76.14Z" fill="#263056"/>
<path d="M84.8502 42C86.5115 42 87.7435 42.448 88.5462 43.344C89.3675 44.2214 89.7782 45.472 89.7782 47.0961V51.2401C89.7782 52.8641 89.3675 54.1241 88.5462 55.0201C87.7435 55.8974 86.5115 56.336 84.8502 56.336C83.1889 56.336 81.9475 55.8974 81.1262 55.0201C80.3235 54.1241 79.9222 52.8641 79.9222 51.2401V47.0961C79.9222 45.472 80.3235 44.2214 81.1262 43.344C81.9475 42.448 83.1889 42 84.8502 42ZM84.8502 43.988C84.0475 43.988 83.4222 44.24 82.9742 44.744C82.5262 45.248 82.3022 45.9667 82.3022 46.9V51.4361C82.3022 52.3694 82.5262 53.088 82.9742 53.592C83.4222 54.0961 84.0475 54.348 84.8502 54.348C85.6529 54.348 86.2782 54.0961 86.7262 53.592C87.1742 53.088 87.3982 52.3694 87.3982 51.4361V46.8721C87.3982 45.9387 87.1742 45.2294 86.7262 44.744C86.2782 44.24 85.6529 43.988 84.8502 43.988Z" fill="#263056"/>
<path d="M97.3292 42C98.1132 42 99.0559 42.112 100.157 42.336L100.101 44.3521C99.1306 44.1281 98.2439 44.016 97.4412 44.016C95.7612 44.016 94.9212 44.5574 94.9212 45.64V45.892C94.9212 46.228 95.0052 46.4987 95.1732 46.704C95.3599 46.9094 95.6866 47.1241 96.1532 47.348L98.7852 48.58C100.372 49.3267 101.165 50.4187 101.165 51.856V52.472C101.147 53.76 100.755 54.7307 99.9892 55.384C99.2426 56.0187 98.0572 56.336 96.4332 56.336C95.5932 56.336 94.3892 56.14 92.8212 55.7481L92.9332 53.62C94.3332 54.0307 95.4812 54.236 96.3772 54.236C97.2919 54.236 97.9266 54.1147 98.2812 53.8721C98.6359 53.6107 98.8132 53.1907 98.8132 52.612V52.3321C98.8132 51.8841 98.7199 51.5294 98.5332 51.268C98.3652 51.0067 98.0759 50.7827 97.6652 50.5961L94.9492 49.392C94.1279 49.0187 93.5212 48.5707 93.1292 48.048C92.7559 47.5254 92.5692 46.9187 92.5692 46.2281V45.836C92.6066 44.5667 92.9986 43.6147 93.7452 42.98C94.5106 42.3267 95.7052 42 97.3292 42Z" fill="#263056"/>
<path d="M110.037 42C111.213 42 112.127 42.4014 112.781 43.204C113.434 44.0067 113.761 45.164 113.761 46.676V51.66C113.761 53.1161 113.378 54.264 112.613 55.104C111.866 55.9254 110.849 56.336 109.561 56.336C109.075 56.336 108.553 56.2334 107.993 56.028C107.451 55.8414 106.947 55.6174 106.481 55.356V61.18H104.101V42.336H106.341V44.324C107.367 42.7747 108.599 42 110.037 42ZM109.561 44.128C109.019 44.128 108.469 44.3334 107.909 44.744C107.367 45.136 106.891 45.6774 106.481 46.368V53.2281C106.873 53.5454 107.302 53.7974 107.769 53.9841C108.254 54.1521 108.693 54.236 109.085 54.236C110.615 54.236 111.381 53.2654 111.381 51.3241V47.0121C111.381 45.0894 110.774 44.128 109.561 44.128Z" fill="#263056"/>
<path d="M119.77 42.336V56H117.39V42.336H119.77ZM118.566 36.82C119.07 36.82 119.452 36.932 119.714 37.156C119.994 37.38 120.134 37.6974 120.134 38.108V38.92C120.134 39.3307 119.994 39.6481 119.714 39.872C119.452 40.0774 119.07 40.18 118.566 40.18C118.08 40.18 117.698 40.0774 117.418 39.872C117.156 39.6481 117.026 39.3307 117.026 38.92V38.108C117.026 37.6974 117.156 37.38 117.418 37.156C117.698 36.932 118.08 36.82 118.566 36.82Z" fill="#263056"/>
<path d="M126.479 42.336H130.119V44.2961H126.479V52.3041C126.479 53.0134 126.619 53.5267 126.899 53.844C127.197 54.1427 127.655 54.292 128.271 54.292C129.055 54.292 129.82 54.1987 130.567 54.0121L130.623 56C129.801 56.224 129.055 56.336 128.383 56.336C126.889 56.336 125.797 56.0094 125.107 55.356C124.435 54.684 124.099 53.6014 124.099 52.108V44.2961H122.139V42.336H124.099L124.547 38.696H126.479V42.336Z" fill="#263056"/>
<path d="M137.312 42C138.917 42 140.084 42.364 140.812 43.092C141.558 43.8014 141.932 44.94 141.932 46.508V56H139.664V53.816C138.581 55.496 137.358 56.336 135.996 56.336C134.913 56.336 134.045 55.9627 133.392 55.216C132.757 54.4694 132.44 53.452 132.44 52.1641V51.3801C132.44 50.2601 132.822 49.3361 133.588 48.6081C134.353 47.8614 135.38 47.488 136.668 47.488C137.377 47.488 138.338 47.6094 139.552 47.8521V46.312C139.552 45.5094 139.365 44.9307 138.992 44.576C138.637 44.2214 138.077 44.044 137.312 44.044C136.416 44.044 135.156 44.1841 133.532 44.4641V42.42C135.286 42.14 136.546 42 137.312 42ZM137.256 49.336C136.472 49.336 135.874 49.5414 135.464 49.952C135.053 50.3627 134.848 50.9414 134.848 51.688V51.996C134.848 52.6867 135.006 53.2281 135.324 53.62C135.641 54.012 136.042 54.208 136.528 54.208C137.032 54.208 137.545 53.9934 138.068 53.564C138.609 53.116 139.104 52.4907 139.552 51.688V49.5321C138.842 49.4014 138.077 49.336 137.256 49.336Z" fill="#263056"/>
<path d="M148.098 36.876V56H145.718V36.876H148.098Z" fill="#263056"/>
<path d="M11.0684 34.8174C11.2507 34.6625 11.3942 34.462 11.499 34.2159C11.6084 33.9698 11.6631 33.7123 11.6631 33.4434C11.6631 33.17 11.6107 32.9581 11.5059 32.8077C11.5788 32.6801 11.7314 32.6163 11.9639 32.6163C12.1963 32.6163 12.374 32.6915 12.4971 32.8418C12.6247 32.9922 12.6885 33.2247 12.6885 33.5391C12.6885 33.849 12.6042 34.1726 12.4355 34.5098C12.2715 34.8425 12.0391 35.1342 11.7383 35.3848C11.0729 35.9317 10.2412 36.2051 9.24316 36.2051C8.05371 36.2051 7.07617 35.8314 6.31055 35.084C5.53125 34.3184 5.06185 33.2269 4.90234 31.8096C4.82487 31.1625 4.59245 30.7432 4.20508 30.5518C4.41927 30.4515 4.56738 30.3467 4.64941 30.2374C4.78158 30.0505 4.86589 29.7976 4.90234 29.4786C4.94336 29.155 5.01855 28.82 5.12793 28.4737C5.2373 28.1273 5.38086 27.7992 5.55859 27.4893C5.74089 27.1749 5.95736 26.8877 6.20801 26.628C6.45866 26.3637 6.74577 26.1358 7.06934 25.9444C7.75293 25.5388 8.55046 25.336 9.46191 25.336C10.3506 25.336 11.0866 25.5593 11.6699 26.0059C12.194 26.4115 12.5335 26.9629 12.6885 27.6602C12.7614 28.0066 12.8548 28.2208 12.9688 28.3028C13.0143 28.3392 13.0713 28.3734 13.1396 28.4053C13.0029 28.6332 12.7956 28.7585 12.5176 28.7813C12.3945 28.7995 12.2624 28.7745 12.1211 28.7061C11.8704 29.1345 11.5173 29.3624 11.0615 29.3897C10.9658 29.3988 10.8929 29.3806 10.8428 29.335C10.9658 29.1709 11.0228 28.9795 11.0137 28.7608C11.0137 28.7198 11.0068 28.6788 10.9932 28.6377C10.7835 28.6788 10.6058 28.6605 10.46 28.5831C10.223 28.4463 10.0999 28.2982 10.0908 28.1387C10.0908 28.1023 10.0977 28.0658 10.1113 28.0293C10.3939 28.1114 10.6628 28.0476 10.918 27.8379C11.0911 27.6967 11.1732 27.5372 11.1641 27.3594C11.1549 27.1817 11.1139 27.0267 11.041 26.8946C10.9681 26.7624 10.8633 26.6439 10.7266 26.5391C10.4167 26.293 10.0293 26.17 9.56445 26.17C8.77148 26.17 8.25651 26.5254 8.01953 27.2364C7.94206 27.4734 7.90332 27.7514 7.90332 28.0704V29.4512C7.90332 29.9662 8.15397 30.3331 8.65527 30.5518C8.15397 30.7933 7.90332 31.1875 7.90332 31.7344V33.4229C7.90332 34.2888 8.2474 34.8607 8.93555 35.1387C9.15885 35.2253 9.40495 35.2686 9.67383 35.2686C9.94271 35.2686 10.1956 35.2321 10.4326 35.1592C10.6742 35.0863 10.8861 34.9724 11.0684 34.8174ZM6.4541 34.1885C6.52246 34.1612 6.55664 34.1133 6.55664 34.045C6.55664 33.9447 6.50879 33.7875 6.41309 33.5733C6.17155 33.0219 6.05078 32.0147 6.05078 30.5518C6.05078 29.4854 6.17839 28.5785 6.43359 27.8311C6.46549 27.7172 6.48145 27.6306 6.48145 27.5713C6.48145 27.5121 6.45182 27.4734 6.39258 27.4551C6.17839 27.724 6.02572 27.9906 5.93457 28.2549C5.76595 28.738 5.63151 29.392 5.53125 30.2168C5.51758 30.3353 5.38314 30.447 5.12793 30.5518C5.38314 30.6657 5.51758 30.7819 5.53125 30.9004C5.69531 32.3132 5.90495 33.2566 6.16016 33.7305C6.24674 33.8991 6.34473 34.0518 6.4541 34.1885Z" fill="white"/>
<path d="M47.5859 35.9249C47.3581 36.0661 47.1006 36.1368 46.8135 36.1368C46.5264 36.1368 46.2803 36.0639 46.0752 35.918C45.8428 36.0639 45.6286 36.1368 45.4326 36.1368C45.2367 36.1368 45.0749 36.1185 44.9473 36.0821C44.8197 36.0502 44.7103 36.0046 44.6191 35.9454C44.4186 35.8269 44.3184 35.6788 44.3184 35.501C44.3184 35.4099 44.3434 35.3301 44.3936 35.2618C44.4938 35.3392 44.6214 35.378 44.7764 35.378C45.182 35.378 45.4622 35.2048 45.6172 34.8584V31.5157C45.6172 31.1602 45.4395 30.8913 45.084 30.709L44.7832 30.5518C45.1888 30.365 45.444 30.1622 45.5488 29.9434C45.5944 29.8431 45.6172 29.7201 45.6172 29.5743V26.6895C45.4622 26.3386 45.182 26.1631 44.7764 26.1631C44.6214 26.1631 44.4938 26.2019 44.3936 26.2793C44.3434 26.211 44.3184 26.1335 44.3184 26.0469C44.3184 25.9558 44.3434 25.8715 44.3936 25.794C44.4482 25.7165 44.5234 25.6504 44.6191 25.5958C44.8242 25.4681 45.0589 25.4043 45.3232 25.4043C45.5921 25.4043 45.8428 25.4773 46.0752 25.6231C46.2803 25.4773 46.5264 25.4043 46.8135 25.4043C47.1051 25.4043 47.3626 25.4773 47.5859 25.6231C47.8001 25.4773 48.0394 25.4043 48.3037 25.4043C48.6911 25.4043 48.9668 25.5342 49.1309 25.794C49.1855 25.876 49.2129 25.9626 49.2129 26.0538C49.2129 26.1449 49.1855 26.2201 49.1309 26.2793C49.0306 26.2019 48.9053 26.1631 48.7549 26.1631C48.404 26.1631 48.1693 26.334 48.0508 26.6758V30.2852H51.2842V26.6758C51.1657 26.334 50.931 26.1631 50.5801 26.1631C50.4297 26.1631 50.3044 26.2019 50.2041 26.2793C50.1494 26.2201 50.1221 26.1449 50.1221 26.0538C50.1221 25.9626 50.1471 25.876 50.1973 25.794C50.252 25.712 50.3203 25.6413 50.4023 25.5821C50.5755 25.4636 50.7852 25.4043 51.0312 25.4043C51.2956 25.4043 51.5348 25.4773 51.749 25.6231C51.9814 25.4773 52.2389 25.4043 52.5215 25.4043C52.8086 25.4043 53.0547 25.4773 53.2598 25.6231C53.4831 25.4773 53.695 25.4043 53.8955 25.4043C54.096 25.4043 54.2601 25.4226 54.3877 25.459C54.5153 25.4909 54.627 25.5365 54.7227 25.5958C54.9186 25.7142 55.0166 25.8624 55.0166 26.0401C55.0166 26.1312 54.9915 26.211 54.9414 26.2793C54.8411 26.2019 54.7135 26.1631 54.5586 26.1631C54.153 26.1631 53.8727 26.3386 53.7178 26.6895V29.5743C53.7178 29.9297 53.8932 30.2055 54.2441 30.4014C54.3444 30.4561 54.4469 30.5062 54.5518 30.5518C54.2783 30.684 54.0938 30.7911 53.998 30.8731C53.8112 31.0463 53.7178 31.2605 53.7178 31.5157V34.8584C53.8727 35.2048 54.153 35.378 54.5586 35.378C54.7135 35.378 54.8411 35.3392 54.9414 35.2618C54.9915 35.3301 55.0166 35.4099 55.0166 35.501C55.0166 35.5876 54.9893 35.6696 54.9346 35.7471C54.8844 35.8246 54.8138 35.8907 54.7227 35.9454C54.513 36.073 54.2715 36.1368 53.998 36.1368C53.7292 36.1368 53.4831 36.0639 53.2598 35.918C53.0547 36.0639 52.8086 36.1368 52.5215 36.1368C52.2389 36.1368 51.9814 36.0639 51.749 35.918C51.5348 36.0639 51.2956 36.1368 51.0312 36.1368C50.6439 36.1368 50.3659 36.0069 50.1973 35.7471C50.1471 35.6651 50.1221 35.5785 50.1221 35.4874C50.1221 35.3962 50.1494 35.321 50.2041 35.2618C50.3044 35.3392 50.4297 35.378 50.5801 35.378C50.931 35.378 51.1657 35.2071 51.2842 34.8653V31.2627H48.0508V34.8653C48.1693 35.2071 48.404 35.378 48.7549 35.378C48.9053 35.378 49.0306 35.3392 49.1309 35.2618C49.1855 35.321 49.2129 35.3962 49.2129 35.4874C49.2129 35.5785 49.1855 35.6651 49.1309 35.7471C49.0807 35.8292 49.0124 35.8998 48.9258 35.959C48.7617 36.0775 48.5544 36.1368 48.3037 36.1368C48.0439 36.1368 47.8047 36.0661 47.5859 35.9249ZM51.8516 29.0889C51.847 29.5765 51.8447 30.3855 51.8447 31.5157C51.8447 32.6459 51.8607 33.3112 51.8926 33.5118C51.9518 33.8946 52.0703 34.1202 52.248 34.1885V33.2999C52.248 32.0876 52.2572 31.404 52.2754 31.2491C52.2936 31.0896 52.3118 30.9779 52.3301 30.9141C52.3711 30.7546 52.5101 30.6338 52.7471 30.5518C52.5374 30.488 52.3984 30.3581 52.3301 30.1622C52.2754 29.9434 52.248 29.0411 52.248 27.4551C52.0703 27.5372 51.9609 27.7012 51.9199 27.9473C51.8789 28.2162 51.8561 28.5967 51.8516 29.0889ZM46.2734 34.1885C46.4922 34.1019 46.6152 33.8034 46.6426 33.293C46.6654 32.7826 46.6768 32.0762 46.6768 31.1739C46.6768 30.2715 46.6745 29.6723 46.6699 29.376C46.6699 29.0752 46.6676 28.8337 46.6631 28.6514C46.6494 28.1182 46.5993 27.7946 46.5127 27.6807C46.4307 27.5668 46.3509 27.4916 46.2734 27.4551C46.2734 29.0411 46.2461 29.9434 46.1914 30.1622C46.1276 30.3444 45.9727 30.4743 45.7266 30.5518C46 30.6475 46.1549 30.7637 46.1914 30.9004C46.2461 31.1192 46.2734 31.919 46.2734 33.2999V34.1885Z" fill="white"/>
</svg>
