<svg width="218" height="80" viewBox="0 0 218 80" fill="none" xmlns="http://www.w3.org/2000/svg">
<path d="M38.1393 17.228L38.8418 17.5903L40.1932 17.9535L40.1878 15.507L37.5563 13.9365L37.5585 15.6713C37.9544 16.22 38.2214 16.7823 38.1393 17.228Z" fill="white"/>
<path d="M42.503 60.5815C42.5283 60.0815 41.7343 59.4897 40.5918 58.8857C40.596 59.839 40.599 60.8282 40.6045 61.8342C42.2048 61.2982 42.4913 60.8282 42.503 60.5815Z" fill="white"/>
<path d="M34.7024 52.2276C34.7969 53.0049 35.8994 53.7621 37.5744 54.5704C37.502 52.5051 37.4179 50.6584 37.3245 49.0166C35.4091 50.4856 34.6109 51.4661 34.7024 52.2276Z" fill="white"/>
<path d="M39.482 58.3418C39.2572 58.2358 39.0264 58.133 38.7921 58.0312C38.8499 60.2202 38.8982 62.62 38.9349 65.2445C39.1082 65.4202 39.3256 65.5685 39.5167 65.6745C39.4998 63.0735 39.4882 60.6367 39.482 58.3418Z" fill="white"/>
<path d="M33.4622 17.2042C32.3165 16.8239 32.176 16.2402 32.0825 15.8549C32.0238 15.6124 32.0144 15.5754 31.8265 15.5339C31.5154 15.4577 29.9867 15.4959 29.5422 16.6587C29.16 17.6554 29.4121 20.1429 35.3764 25.5959C35.7514 25.9392 36.1064 26.2664 36.4621 26.5944L36.4526 17.9377C35.7145 17.8667 34.7371 17.6297 33.4622 17.2042Z" fill="white"/>
<path d="M40.6416 44.0255C42.7407 43.016 43.8725 41.92 44.0733 40.6842C44.3472 38.997 42.8931 37.1215 40.8716 35.1357C40.7613 37.5907 40.6877 40.5252 40.6416 44.0255Z" fill="white"/>
<path d="M43.2616 20.6624L42.8839 18.1576C42.1992 18.6141 41.5123 19.6011 41.2488 20.1404L40.1966 19.8946L40.1946 18.4194L39.6916 18.5221L39.7494 19.4816L39.4577 19.5746L38.5189 18.0636L37.8246 17.7236C37.749 17.7799 37.663 17.8276 37.5611 17.8636L37.5725 27.6259C38.4765 28.4711 39.3208 29.2729 40.1002 30.0311C40.6628 23.9999 41.6509 22.0994 43.2616 20.6624Z" fill="white"/>
<path d="M38.9657 67.6611C38.9741 68.4556 38.9825 69.2624 38.9897 70.0949C39.1642 70.4211 39.4728 70.3596 39.5474 70.1416C39.5412 69.3939 39.5368 68.6821 39.5318 67.9536C39.3995 67.8096 39.2093 67.7246 38.9657 67.6611Z" fill="white"/>
<path d="M37.5773 32.0928L37.5803 34.6853L35.9822 33.5935L35.598 34.4905C36.8401 35.4298 38.1224 37.8858 38.7029 55.088C38.9518 55.199 39.2121 55.3093 39.4758 55.4215C39.4674 45.819 39.5651 39.0168 39.8139 34.1293C39.2773 33.6305 38.7185 33.1263 38.1526 32.618C37.9628 32.4453 37.7694 32.2665 37.5773 32.0928Z" fill="white"/>
<path d="M38.4215 1.25C32.0737 2.34498 28.4422 1.18677 22.3093 7.5H54.5337C48.1261 1.13899 44.6735 2.34074 38.4215 1.25Z" fill="white"/>
<mask id="mask0_38_85" style="mask-type:alpha" maskUnits="userSpaceOnUse" x="22" y="7" width="33" height="71">
<path d="M54.5336 7.5H22.3092C22.3092 7.5 23.5486 77.5 39.6608 77.5C55.773 77.5 54.5336 7.5 54.5336 7.5Z" fill="black"/>
</mask>
<g mask="url(#mask0_38_85)">
<path d="M48.1141 68.418L39.661 77.5L41.2587 77.2559C45.6255 75.5826 46.5442 72.9376 48.0864 68.4977L48.1141 68.418Z" fill="white"/>
<path d="M56.0175 2.5H22.3093V92.0578C71.1742 64.537 59.4209 10.5138 56.0175 2.5ZM47.3596 41.1237C47.0267 43.568 44.4247 45.396 40.6078 47.3478C40.589 49.917 40.5813 52.748 40.5858 55.8828C40.7276 55.942 40.8619 55.9992 41.0079 56.0585C44.6916 57.5602 45.3101 59.2652 45.1807 60.4312C44.9727 62.307 42.7656 63.7177 40.617 64.2217C40.6212 64.9377 40.6244 65.641 40.6296 66.3823C41.1368 66.8672 41.4434 67.509 41.4162 68.17C41.3931 68.7505 41.1138 69.2375 40.652 69.5553C40.6539 69.7755 40.6549 69.9852 40.6572 70.2095V70.273L40.6435 70.3345C40.5005 70.991 39.9671 71.4275 39.3181 71.4275C38.7133 71.4275 38.1841 71.0502 37.9449 70.4617C37.8556 70.4912 37.7505 70.5295 37.6266 70.5802C37.1551 70.771 36.9043 70.8473 36.7288 70.8473C36.4715 70.8473 36.3718 70.682 36.3403 70.6162C36.2206 70.3517 36.4306 70.072 36.6561 69.8135C37.0636 69.3475 37.343 69.1525 37.869 68.89C37.8638 68.3753 37.8596 67.848 37.8544 67.348C37.6999 67.2887 37.5465 67.2337 37.4017 67.1362C36.144 66.3247 35.6031 65.463 35.7942 64.5755C36.0062 63.5885 37.114 62.8957 37.7842 62.591C37.7515 60.7948 37.7128 59.1182 37.6697 57.5562C36.9769 57.2712 36.2796 56.997 35.6356 56.7438C32.2848 55.42 31.6413 53.5147 31.6812 52.1435C31.764 49.2807 34.7504 46.4945 37.0899 45.5157C36.4429 37.2975 35.5055 35.7332 34.6119 35.171L34.2076 34.9167L35.496 31.91L36.4695 32.5775L36.4685 31.0842C35.851 30.5122 35.2464 29.9362 34.6803 29.3547C33.8253 28.4747 29.9624 24.3677 29.5202 23.7557C28.4238 22.2455 27.6541 20.8675 27.233 19.6635C26.5776 17.79 26.7194 15.8433 27.6038 14.5843C28.5457 13.2423 30.2499 12.7478 32.4521 13.1958C32.958 13.414 33.1935 13.3407 33.5388 13.2487C33.7416 13.1957 33.9716 13.1365 34.2351 13.1365C34.6803 13.1365 35.117 13.307 35.6083 13.6725C35.7504 13.7783 36.0756 14.0525 36.4486 14.4137L36.4454 11.977L41.2957 14.8693L41.3019 18.111C41.8333 17.5042 42.5106 16.945 43.2361 16.8255L43.7906 16.7333L44.4502 21.1145L44.2098 21.3158C42.6114 22.6562 41.6455 24.4505 41.1172 31.0357C45.6346 35.558 47.7071 38.5747 47.3596 41.1237Z" fill="white"/>
</g>
<path d="M75.3428 40C75.3428 61.3205 58.7562 78.5 38.4214 78.5C18.0866 78.5 1.5 61.3205 1.5 40C1.5 18.6795 18.0866 1.5 38.4214 1.5C58.7562 1.5 75.3428 18.6795 75.3428 40Z" stroke="white" stroke-width="3"/>
<path d="M93.4396 10.6556C94.2716 10.6556 95.1676 10.7409 96.1276 10.9116C97.1089 11.0609 97.6849 11.1462 97.8556 11.1676L97.7916 13.5676C95.9142 13.2262 94.4636 13.0556 93.4396 13.0556C91.9889 13.0556 90.9436 13.3542 90.3036 13.9516C89.6636 14.5489 89.3436 15.5409 89.3436 16.9276V26.0796C89.3436 27.4662 89.6529 28.4582 90.2716 29.0556C90.9116 29.6316 91.9676 29.9196 93.4396 29.9196C94.4636 29.9196 95.9142 29.7489 97.7916 29.4076L97.8556 31.8716C97.6849 31.8929 97.1089 31.9782 96.1276 32.1276C95.1676 32.2982 94.2716 32.3836 93.4396 32.3836C90.9862 32.3836 89.2369 31.8609 88.1916 30.8156C87.1462 29.7702 86.6236 28.1382 86.6236 25.9196V17.1196C86.6236 14.9009 87.1462 13.2689 88.1916 12.2236C89.2369 11.1782 90.9862 10.6556 93.4396 10.6556Z" fill="white"/>
<path d="M106.842 15.9996C108.74 15.9996 110.148 16.5116 111.066 17.5356C112.004 18.5382 112.474 19.9676 112.474 21.8236V26.5596C112.474 28.4156 112.004 29.8556 111.066 30.8796C110.148 31.8822 108.74 32.3836 106.842 32.3836C104.943 32.3836 103.524 31.8822 102.586 30.8796C101.668 29.8556 101.21 28.4156 101.21 26.5596V21.8236C101.21 19.9676 101.668 18.5382 102.586 17.5356C103.524 16.5116 104.943 15.9996 106.842 15.9996ZM106.842 18.2716C105.924 18.2716 105.21 18.5596 104.698 19.1356C104.186 19.7116 103.93 20.5329 103.93 21.5996V26.7836C103.93 27.8502 104.186 28.6716 104.698 29.2476C105.21 29.8236 105.924 30.1116 106.842 30.1116C107.759 30.1116 108.474 29.8236 108.986 29.2476C109.498 28.6716 109.754 27.8502 109.754 26.7836V21.5676C109.754 20.5009 109.498 19.6902 108.986 19.1356C108.474 18.5596 107.759 18.2716 106.842 18.2716Z" fill="white"/>
<path d="M119.344 10.1436V31.9996H116.624V10.1436H119.344Z" fill="white"/>
<path d="M128.931 15.9996C130.723 15.9996 132.088 16.4902 133.027 17.4716C133.966 18.4529 134.435 19.8716 134.435 21.7276V25.0236H126.211V26.9116C126.211 27.9996 126.467 28.7889 126.979 29.2796C127.512 29.7489 128.344 29.9836 129.475 29.9836C130.584 29.9836 131.971 29.8129 133.635 29.4716L133.699 31.8396C131.715 32.2022 130.296 32.3836 129.443 32.3836C127.331 32.3836 125.806 31.9249 124.867 31.0076C123.95 30.0902 123.491 28.6716 123.491 26.7516V21.7276C123.491 19.8716 123.939 18.4529 124.835 17.4716C125.752 16.4902 127.118 15.9996 128.931 15.9996ZM128.931 18.2716C128.099 18.2716 127.438 18.5382 126.947 19.0716C126.456 19.5836 126.211 20.3302 126.211 21.3116V22.8476H131.715V21.4076C131.715 20.3836 131.459 19.6049 130.947 19.0716C130.456 18.5382 129.784 18.2716 128.931 18.2716Z" fill="white"/>
<path d="M140.684 18.4636C141.238 17.6742 141.878 17.0662 142.604 16.6396C143.329 16.2129 144.086 15.9996 144.876 15.9996C146.198 15.9996 147.222 16.4689 147.948 17.4076C148.673 18.3249 149.036 19.6689 149.036 21.4396V26.4956C149.036 28.4369 148.577 29.9089 147.66 30.9116C146.742 31.8929 145.324 32.3836 143.404 32.3836C141.526 32.3836 140.15 31.9036 139.276 30.9436C138.401 29.9836 137.964 28.5222 137.964 26.5596V10.1436H140.684V18.4636ZM144.236 18.4316C143.617 18.4316 142.988 18.6662 142.348 19.1356C141.708 19.6049 141.153 20.2449 140.684 21.0556V26.8796C140.684 27.9249 140.918 28.7249 141.388 29.2796C141.878 29.8342 142.55 30.1116 143.404 30.1116C145.345 30.1116 146.316 29.0129 146.316 26.8156V21.8236C146.316 19.5622 145.622 18.4316 144.236 18.4316Z" fill="white"/>
<path d="M160.002 15.9996C160.301 15.9996 160.535 16.0209 160.706 16.0636V19.1356C160.386 19.0716 159.97 19.0396 159.458 19.0396C157.965 19.0396 156.781 19.7862 155.906 21.2796V31.9996H153.186V16.3836H155.746V18.7196C156.322 17.8449 156.962 17.1729 157.666 16.7036C158.391 16.2342 159.17 15.9996 160.002 15.9996Z" fill="white"/>
<path d="M168.686 15.9996C170.584 15.9996 171.992 16.5116 172.91 17.5356C173.848 18.5382 174.318 19.9676 174.318 21.8236V26.5596C174.318 28.4156 173.848 29.8556 172.91 30.8796C171.992 31.8822 170.584 32.3836 168.686 32.3836C166.787 32.3836 165.368 31.8822 164.43 30.8796C163.512 29.8556 163.054 28.4156 163.054 26.5596V21.8236C163.054 19.9676 163.512 18.5382 164.43 17.5356C165.368 16.5116 166.787 15.9996 168.686 15.9996ZM168.686 18.2716C167.768 18.2716 167.054 18.5596 166.542 19.1356C166.03 19.7116 165.774 20.5329 165.774 21.5996V26.7836C165.774 27.8502 166.03 28.6716 166.542 29.2476C167.054 29.8236 167.768 30.1116 168.686 30.1116C169.603 30.1116 170.318 29.8236 170.83 29.2476C171.342 28.6716 171.598 27.8502 171.598 26.7836V21.5676C171.598 20.5009 171.342 19.6902 170.83 19.1356C170.318 18.5596 169.603 18.2716 168.686 18.2716Z" fill="white"/>
<path d="M183.779 15.9996C185.678 15.9996 187.086 16.5116 188.003 17.5356C188.942 18.5382 189.411 19.9676 189.411 21.8236V26.5596C189.411 28.4156 188.942 29.8556 188.003 30.8796C187.086 31.8822 185.678 32.3836 183.779 32.3836C181.881 32.3836 180.462 31.8822 179.523 30.8796C178.606 29.8556 178.147 28.4156 178.147 26.5596V21.8236C178.147 19.9676 178.606 18.5382 179.523 17.5356C180.462 16.5116 181.881 15.9996 183.779 15.9996ZM183.779 18.2716C182.862 18.2716 182.147 18.5596 181.635 19.1356C181.123 19.7116 180.867 20.5329 180.867 21.5996V26.7836C180.867 27.8502 181.123 28.6716 181.635 29.2476C182.147 29.8236 182.862 30.1116 183.779 30.1116C184.697 30.1116 185.411 29.8236 185.923 29.2476C186.435 28.6716 186.691 27.8502 186.691 26.7836V21.5676C186.691 20.5009 186.435 19.6902 185.923 19.1356C185.411 18.5596 184.697 18.2716 183.779 18.2716Z" fill="white"/>
<path d="M196.281 10.1436V23.2316L201.401 16.3836H204.441L199.129 23.2316L204.825 31.9996H201.561L196.281 23.6156V31.9996H193.561V10.1436H196.281Z" fill="white"/>
<path d="M211.869 15.9996C213.661 15.9996 215.026 16.4902 215.965 17.4716C216.903 18.4529 217.373 19.8716 217.373 21.7276V25.0236H209.149V26.9116C209.149 27.9996 209.405 28.7889 209.917 29.2796C210.45 29.7489 211.282 29.9836 212.413 29.9836C213.522 29.9836 214.909 29.8129 216.573 29.4716L216.637 31.8396C214.653 32.2022 213.234 32.3836 212.381 32.3836C210.269 32.3836 208.743 31.9249 207.805 31.0076C206.887 30.0902 206.429 28.6716 206.429 26.7516V21.7276C206.429 19.8716 206.877 18.4529 207.773 17.4716C208.69 16.4902 210.055 15.9996 211.869 15.9996ZM211.869 18.2716C211.037 18.2716 210.375 18.5382 209.885 19.0716C209.394 19.5836 209.149 20.3302 209.149 21.3116V22.8476H214.653V21.4076C214.653 20.3836 214.397 19.6049 213.885 19.0716C213.394 18.5382 212.722 18.2716 211.869 18.2716Z" fill="white"/>
<path d="M102.059 47.0746V69.9996H99.0836V59.4996H89.9836V69.9996H87.0086V47.0746H89.9836V56.8396H99.0836V47.0746H102.059Z" fill="white"/>
<path d="M112.946 52.4996C115.023 52.4996 116.563 53.0596 117.566 54.1796C118.593 55.2762 119.106 56.8396 119.106 58.8696V64.0496C119.106 66.0796 118.593 67.6546 117.566 68.7746C116.563 69.8712 115.023 70.4196 112.946 70.4196C110.87 70.4196 109.318 69.8712 108.291 68.7746C107.288 67.6546 106.786 66.0796 106.786 64.0496V58.8696C106.786 56.8396 107.288 55.2762 108.291 54.1796C109.318 53.0596 110.87 52.4996 112.946 52.4996ZM112.946 54.9846C111.943 54.9846 111.161 55.2996 110.601 55.9296C110.041 56.5596 109.761 57.4579 109.761 58.6246V64.2946C109.761 65.4612 110.041 66.3596 110.601 66.9896C111.161 67.6196 111.943 67.9346 112.946 67.9346C113.95 67.9346 114.731 67.6196 115.291 66.9896C115.851 66.3596 116.131 65.4612 116.131 64.2946V58.5896C116.131 57.4229 115.851 56.5362 115.291 55.9296C114.731 55.2996 113.95 54.9846 112.946 54.9846Z" fill="white"/>
<path d="M128.545 52.4996C129.525 52.4996 130.703 52.6396 132.08 52.9196L132.01 55.4396C130.797 55.1596 129.688 55.0196 128.685 55.0196C126.585 55.0196 125.535 55.6962 125.535 57.0496V57.3646C125.535 57.7846 125.64 58.1229 125.85 58.3796C126.083 58.6362 126.492 58.9046 127.075 59.1846L130.365 60.7246C132.348 61.6579 133.34 63.0229 133.34 64.8196V65.5896C133.317 67.1996 132.827 68.4129 131.87 69.2296C130.937 70.0229 129.455 70.4196 127.425 70.4196C126.375 70.4196 124.87 70.1746 122.91 69.6846L123.05 67.0246C124.8 67.5379 126.235 67.7946 127.355 67.7946C128.498 67.7946 129.292 67.6429 129.735 67.3396C130.178 67.0129 130.4 66.4879 130.4 65.7646V65.4146C130.4 64.8546 130.283 64.4112 130.05 64.0846C129.84 63.7579 129.478 63.4779 128.965 63.2446L125.57 61.7396C124.543 61.2729 123.785 60.7129 123.295 60.0596C122.828 59.4062 122.595 58.6479 122.595 57.7846V57.2946C122.642 55.7079 123.132 54.5179 124.065 53.7246C125.022 52.9079 126.515 52.4996 128.545 52.4996Z" fill="white"/>
<path d="M144.429 52.4996C145.899 52.4996 147.043 53.0012 147.859 54.0046C148.676 55.0079 149.084 56.4546 149.084 58.3446V64.5746C149.084 66.3946 148.606 67.8296 147.649 68.8796C146.716 69.9062 145.444 70.4196 143.834 70.4196C143.228 70.4196 142.574 70.2912 141.874 70.0346C141.198 69.8012 140.568 69.5212 139.984 69.1946V76.4746H137.009V52.9196H139.809V55.4046C141.093 53.4679 142.633 52.4996 144.429 52.4996ZM143.834 55.1596C143.158 55.1596 142.469 55.4162 141.769 55.9296C141.093 56.4196 140.498 57.0962 139.984 57.9596V66.5346C140.474 66.9312 141.011 67.2462 141.594 67.4796C142.201 67.6896 142.749 67.7946 143.239 67.7946C145.153 67.7946 146.109 66.5812 146.109 64.1546V58.7646C146.109 56.3612 145.351 55.1596 143.834 55.1596Z" fill="white"/>
<path d="M156.596 52.9196V69.9996H153.621V52.9196H156.596ZM155.091 46.0246C155.721 46.0246 156.199 46.1646 156.526 46.4446C156.876 46.7246 157.051 47.1212 157.051 47.6346V48.6496C157.051 49.1629 156.876 49.5596 156.526 49.8396C156.199 50.0962 155.721 50.2246 155.091 50.2246C154.484 50.2246 154.006 50.0962 153.656 49.8396C153.329 49.5596 153.166 49.1629 153.166 48.6496V47.6346C153.166 47.1212 153.329 46.7246 153.656 46.4446C154.006 46.1646 154.484 46.0246 155.091 46.0246Z" fill="white"/>
<path d="M164.982 52.9196H169.532V55.3696H164.982V65.3796C164.982 66.2662 165.157 66.9079 165.507 67.3046C165.88 67.6779 166.452 67.8646 167.222 67.8646C168.202 67.8646 169.159 67.7479 170.092 67.5146L170.162 69.9996C169.135 70.2796 168.202 70.4196 167.362 70.4196C165.495 70.4196 164.13 70.0112 163.267 69.1946C162.427 68.3546 162.007 67.0012 162.007 65.1346V55.3696H159.557V52.9196H162.007L162.567 48.3696H164.982V52.9196Z" fill="white"/>
<path d="M178.523 52.4996C180.53 52.4996 181.988 52.9546 182.898 53.8646C183.831 54.7512 184.298 56.1746 184.298 58.1346V69.9996H181.463V67.2696C180.11 69.3696 178.582 70.4196 176.878 70.4196C175.525 70.4196 174.44 69.9529 173.623 69.0196C172.83 68.0862 172.433 66.8146 172.433 65.2046V64.2246C172.433 62.8246 172.911 61.6696 173.868 60.7596C174.825 59.8262 176.108 59.3596 177.718 59.3596C178.605 59.3596 179.807 59.5112 181.323 59.8146V57.8896C181.323 56.8862 181.09 56.1629 180.623 55.7196C180.18 55.2762 179.48 55.0546 178.523 55.0546C177.403 55.0546 175.828 55.2296 173.798 55.5796V53.0246C175.992 52.6746 177.566 52.4996 178.523 52.4996ZM178.453 61.6696C177.473 61.6696 176.727 61.9262 176.213 62.4396C175.7 62.9529 175.443 63.6762 175.443 64.6096V64.9946C175.443 65.8579 175.641 66.5346 176.038 67.0246C176.435 67.5146 176.936 67.7596 177.543 67.7596C178.173 67.7596 178.815 67.4912 179.468 66.9546C180.145 66.3946 180.763 65.6129 181.323 64.6096V61.9146C180.436 61.7512 179.48 61.6696 178.453 61.6696Z" fill="white"/>
<path d="M192.006 46.0946V69.9996H189.031V46.0946H192.006Z" fill="white"/>
<path d="M14.1108 45.479C14.3452 45.2798 14.5298 45.022 14.6646 44.7056C14.8052 44.3892 14.8755 44.0582 14.8755 43.7124C14.8755 43.3609 14.8081 43.0884 14.6733 42.8951C14.7671 42.731 14.9634 42.649 15.2622 42.649C15.561 42.649 15.7896 42.7457 15.9478 42.939C16.1118 43.1324 16.1938 43.4312 16.1938 43.8355C16.1938 44.2339 16.0854 44.6499 15.8687 45.0835C15.6577 45.5113 15.3589 45.8863 14.9722 46.2085C14.1167 46.9117 13.0474 47.2632 11.7642 47.2632C10.2349 47.2632 8.97803 46.7828 7.99365 45.8218C6.9917 44.8374 6.38818 43.4341 6.18311 41.6119C6.0835 40.7798 5.78467 40.2408 5.28662 39.9947C5.56201 39.8658 5.75244 39.731 5.85791 39.5904C6.02783 39.3501 6.13623 39.0249 6.18311 38.6148C6.23584 38.1988 6.33252 37.7681 6.47314 37.3228C6.61377 36.8775 6.79834 36.4556 7.02686 36.0572C7.26123 35.6529 7.53955 35.2837 7.86182 34.9498C8.18408 34.6099 8.55322 34.3169 8.96924 34.0708C9.84814 33.5494 10.8735 33.2886 12.0454 33.2886C13.188 33.2886 14.1343 33.5757 14.8843 34.1499C15.5581 34.6714 15.9946 35.3804 16.1938 36.2769C16.2876 36.7222 16.4077 36.9976 16.5542 37.1031C16.6128 37.1499 16.686 37.1939 16.7739 37.2349C16.5981 37.5279 16.3315 37.689 15.9741 37.7183C15.8159 37.7417 15.646 37.7095 15.4644 37.6216C15.1421 38.1724 14.688 38.4654 14.1021 38.5005C13.979 38.5123 13.8853 38.4888 13.8208 38.4302C13.979 38.2193 14.0522 37.9732 14.0405 37.6919C14.0405 37.6392 14.0317 37.5865 14.0142 37.5337C13.7446 37.5865 13.5161 37.563 13.3286 37.4634C13.0239 37.2876 12.8657 37.0972 12.854 36.8921C12.854 36.8453 12.8628 36.7984 12.8804 36.7515C13.2437 36.857 13.5894 36.7749 13.9175 36.5054C14.1401 36.3238 14.2456 36.1187 14.2339 35.8902C14.2222 35.6617 14.1694 35.4624 14.0757 35.2925C13.9819 35.1226 13.8472 34.9703 13.6714 34.8355C13.2729 34.5191 12.7749 34.3609 12.1772 34.3609C11.1577 34.3609 10.4956 34.8179 10.1909 35.732C10.0913 36.0367 10.0415 36.3941 10.0415 36.8042V38.5796C10.0415 39.2417 10.3638 39.7134 11.0083 39.9947C10.3638 40.3052 10.0415 40.8121 10.0415 41.5152V43.6861C10.0415 44.7994 10.4839 45.5347 11.3687 45.8921C11.6558 46.0035 11.9722 46.0591 12.3179 46.0591C12.6636 46.0591 12.9888 46.0123 13.2935 45.9185C13.604 45.8248 13.8765 45.6783 14.1108 45.479ZM8.17822 44.6705C8.26611 44.6353 8.31006 44.5738 8.31006 44.4859C8.31006 44.357 8.24854 44.1548 8.12549 43.8794C7.81494 43.1705 7.65967 41.8755 7.65967 39.9947C7.65967 38.6236 7.82373 37.4576 8.15186 36.4966C8.19287 36.3501 8.21338 36.2388 8.21338 36.1626C8.21338 36.0865 8.17529 36.0367 8.09912 36.0132C7.82373 36.3589 7.62744 36.7017 7.51025 37.0415C7.29346 37.6626 7.12061 38.5035 6.9917 39.564C6.97412 39.7164 6.80127 39.8599 6.47314 39.9947C6.80127 40.1412 6.97412 40.2906 6.9917 40.4429C7.20264 42.2593 7.47217 43.4722 7.80029 44.0816C7.91162 44.2984 8.0376 44.4947 8.17822 44.6705Z" fill="white"/>
<path d="M61.062 46.9029C60.769 47.0845 60.438 47.1753 60.0688 47.1753C59.6997 47.1753 59.3833 47.0816 59.1196 46.8941C58.8208 47.0816 58.5454 47.1753 58.2935 47.1753C58.0415 47.1753 57.8335 47.1519 57.6694 47.105C57.5054 47.064 57.3647 47.0054 57.2476 46.9292C56.9897 46.7769 56.8608 46.5865 56.8608 46.358C56.8608 46.2408 56.8931 46.1382 56.9575 46.0503C57.0864 46.1499 57.2505 46.1998 57.4497 46.1998C57.9712 46.1998 58.3315 45.9771 58.5308 45.5318V41.2339C58.5308 40.7769 58.3022 40.4312 57.8452 40.1968L57.4585 39.9947C57.98 39.7544 58.3081 39.4937 58.4429 39.2124C58.5015 39.0835 58.5308 38.9253 58.5308 38.7378V35.0289C58.3315 34.5777 57.9712 34.3521 57.4497 34.3521C57.2505 34.3521 57.0864 34.4019 56.9575 34.5015C56.8931 34.4136 56.8608 34.314 56.8608 34.2027C56.8608 34.0855 56.8931 33.9771 56.9575 33.8775C57.0278 33.7779 57.1245 33.6929 57.2476 33.6226C57.5112 33.4585 57.813 33.3765 58.1528 33.3765C58.4985 33.3765 58.8208 33.4703 59.1196 33.6578C59.3833 33.4703 59.6997 33.3765 60.0688 33.3765C60.4438 33.3765 60.7749 33.4703 61.062 33.6578C61.3374 33.4703 61.645 33.3765 61.9849 33.3765C62.4829 33.3765 62.8374 33.5435 63.0483 33.8775C63.1187 33.983 63.1538 34.0943 63.1538 34.2115C63.1538 34.3287 63.1187 34.4253 63.0483 34.5015C62.9194 34.4019 62.7583 34.3521 62.5649 34.3521C62.1138 34.3521 61.812 34.5718 61.6597 35.0113V39.6519H65.8169V35.0113C65.6646 34.5718 65.3628 34.3521 64.9116 34.3521C64.7183 34.3521 64.5571 34.4019 64.4282 34.5015C64.3579 34.4253 64.3228 34.3287 64.3228 34.2115C64.3228 34.0943 64.355 33.983 64.4194 33.8775C64.4897 33.772 64.5776 33.6812 64.6831 33.605C64.9058 33.4527 65.1753 33.3765 65.4917 33.3765C65.8315 33.3765 66.1392 33.4703 66.4146 33.6578C66.7134 33.4703 67.0444 33.3765 67.4077 33.3765C67.7769 33.3765 68.0933 33.4703 68.3569 33.6578C68.644 33.4703 68.9165 33.3765 69.1743 33.3765C69.4321 33.3765 69.6431 33.3999 69.8071 33.4468C69.9712 33.4878 70.1147 33.5464 70.2378 33.6226C70.4897 33.7749 70.6157 33.9654 70.6157 34.1939C70.6157 34.3111 70.5835 34.4136 70.519 34.5015C70.3901 34.4019 70.2261 34.3521 70.0269 34.3521C69.5054 34.3521 69.145 34.5777 68.9458 35.0289V38.7378C68.9458 39.1949 69.1714 39.5494 69.6226 39.8013C69.7515 39.8716 69.8833 39.9361 70.0181 39.9947C69.6665 40.1646 69.4292 40.3023 69.3062 40.4078C69.0659 40.6304 68.9458 40.9058 68.9458 41.2339V45.5318C69.145 45.9771 69.5054 46.1998 70.0269 46.1998C70.2261 46.1998 70.3901 46.1499 70.519 46.0503C70.5835 46.1382 70.6157 46.2408 70.6157 46.358C70.6157 46.4693 70.5806 46.5748 70.5103 46.6744C70.4458 46.774 70.355 46.8589 70.2378 46.9292C69.9683 47.0933 69.6577 47.1753 69.3062 47.1753C68.9604 47.1753 68.644 47.0816 68.3569 46.8941C68.0933 47.0816 67.7769 47.1753 67.4077 47.1753C67.0444 47.1753 66.7134 47.0816 66.4146 46.8941C66.1392 47.0816 65.8315 47.1753 65.4917 47.1753C64.9937 47.1753 64.6362 47.0083 64.4194 46.6744C64.355 46.5689 64.3228 46.4576 64.3228 46.3404C64.3228 46.2232 64.3579 46.1265 64.4282 46.0503C64.5571 46.1499 64.7183 46.1998 64.9116 46.1998C65.3628 46.1998 65.6646 45.98 65.8169 45.5406V40.9087H61.6597V45.5406C61.812 45.98 62.1138 46.1998 62.5649 46.1998C62.7583 46.1998 62.9194 46.1499 63.0483 46.0503C63.1187 46.1265 63.1538 46.2232 63.1538 46.3404C63.1538 46.4576 63.1187 46.5689 63.0483 46.6744C62.9839 46.7798 62.896 46.8707 62.7847 46.9468C62.5737 47.0992 62.3071 47.1753 61.9849 47.1753C61.6509 47.1753 61.3433 47.0845 61.062 46.9029ZM66.5464 38.1138C66.5405 38.7408 66.5376 39.7808 66.5376 41.2339C66.5376 42.6871 66.5581 43.5425 66.5991 43.8003C66.6753 44.2925 66.8276 44.5826 67.0562 44.6705V43.5279C67.0562 41.9693 67.0679 41.0904 67.0913 40.8912C67.1147 40.6861 67.1382 40.5425 67.1616 40.4605C67.2144 40.2554 67.3931 40.1001 67.6978 39.9947C67.4282 39.9126 67.2495 39.7456 67.1616 39.4937C67.0913 39.2124 67.0562 38.0523 67.0562 36.0132C66.8276 36.1187 66.687 36.3296 66.6343 36.646C66.5815 36.9917 66.5522 37.481 66.5464 38.1138ZM59.3745 44.6705C59.6558 44.5591 59.814 44.1753 59.8491 43.5191C59.8784 42.8628 59.8931 41.9546 59.8931 40.7945C59.8931 39.6343 59.8901 38.8638 59.8843 38.483C59.8843 38.0962 59.8813 37.7857 59.8755 37.5513C59.8579 36.8658 59.7935 36.4498 59.6821 36.3033C59.5767 36.1568 59.4741 36.0601 59.3745 36.0132C59.3745 38.0523 59.3394 39.2124 59.269 39.4937C59.187 39.7281 58.9878 39.8951 58.6714 39.9947C59.0229 40.1177 59.2222 40.2671 59.269 40.4429C59.3394 40.7242 59.3745 41.7525 59.3745 43.5279V44.6705Z" fill="white"/>
</svg>
