<?xml version="1.0" standalone="no"?>
<!DOCTYPE svg PUBLIC "-//W3C//DTD SVG 20010904//EN"
 "http://www.w3.org/TR/2001/REC-SVG-20010904/DTD/svg10.dtd">
<svg version="1.0" xmlns="http://www.w3.org/2000/svg"
 width="320.000000pt" height="320.000000pt" viewBox="0 0 320.000000 320.000000"
 preserveAspectRatio="xMidYMid meet">
<metadata>
Created by potrace 1.14, written by Peter Selinger 2001-2017
</metadata>
<g transform="translate(0.000000,320.000000) scale(0.100000,-0.100000)"
fill="#000000" stroke="none">
<path d="M1450 3194 c-728 -86 -1281 -591 -1422 -1296 -32 -161 -32 -434 0
-593 130 -654 622 -1147 1274 -1277 161 -32 434 -32 593 0 654 130 1147 622
1277 1274 32 161 32 434 0 593 -130 652 -624 1149 -1268 1275 -105 21 -366 34
-454 24z m817 -686 c-17 -1046 -125 -1777 -328 -2205 -54 -113 -185 -204 -292
-202 -369 6 -620 892 -707 2489 -5 102 -10 213 -10 248 l0 62 672 0 671 0 -6
-392z m-1561 -572 c55 -25 84 -56 103 -108 7 -18 19 -46 27 -62 17 -33 9 -46
-27 -48 -13 -1 -33 -9 -44 -19 -11 -10 -33 -21 -48 -24 -26 -7 -28 -5 -22 16
5 20 1 26 -25 36 -38 14 -39 39 0 46 57 12 46 94 -16 117 -38 15 -97 12 -122
-6 -39 -27 -52 -67 -52 -158 0 -74 3 -88 23 -112 l23 -27 -23 -23 c-21 -21
-23 -32 -23 -121 0 -106 9 -134 51 -165 88 -66 215 1 213 113 0 47 1 49 27 49
77 0 57 -144 -29 -203 -56 -39 -90 -49 -169 -49 -55 0 -84 5 -125 24 -100 46
-147 113 -178 255 -10 46 -26 93 -36 104 -16 18 -16 20 0 32 9 7 25 47 36 91
23 91 64 162 118 203 86 65 225 82 318 39z m1779 14 c19 2 49 3 90 2 11 0 38
0 59 0 27 1 43 -4 52 -17 20 -27 17 -35 -13 -35 -55 0 -63 -20 -63 -162 l0
-128 115 0 115 0 0 133 c0 144 -4 157 -52 157 -31 0 -33 3 -18 30 12 22 63 35
86 22 11 -6 28 -6 46 0 17 6 38 6 55 1 17 -6 40 -6 59 0 37 11 87 -8 92 -36 3
-13 -3 -17 -23 -17 -61 0 -65 -9 -65 -145 0 -122 0 -124 26 -144 l27 -21 -27
-21 c-26 -20 -26 -21 -26 -158 0 -151 4 -161 57 -161 37 0 44 -18 16 -41 -24
-20 -279 -22 -310 -3 -35 22 -29 42 15 46 l37 3 3 143 3 142 -116 0 -115 0 0
-126 c0 -69 5 -134 10 -145 8 -13 21 -19 45 -19 38 0 42 -6 21 -36 -13 -17
-28 -19 -153 -20 -104 -2 -144 2 -160 12 -35 22 -29 44 10 44 53 0 57 10 57
157 0 130 -1 135 -25 159 l-26 26 26 20 c24 19 25 23 25 138 0 132 -7 150 -61
150 -23 0 -30 4 -27 17 5 25 48 45 83 37 17 -3 39 -5 50 -4z"/>
<path d="M1520 2674 c0 -24 -2 -44 -5 -44 -3 0 -18 9 -33 20 -23 17 -46 20
-144 22 -105 3 -119 1 -145 -18 -53 -39 -73 -81 -73 -149 0 -54 6 -75 42 -146
37 -74 61 -104 200 -245 125 -127 158 -166 158 -188 0 -24 -2 -26 -21 -16 -11
7 -22 10 -23 8 -1 -2 -12 -26 -25 -55 l-24 -52 30 -34 c16 -19 35 -56 42 -82
17 -66 41 -232 41 -281 0 -36 -3 -42 -36 -57 -90 -43 -184 -168 -184 -245 0
-79 66 -146 190 -192 l60 -22 0 -104 c0 -57 -4 -104 -9 -104 -5 0 -23 -13 -40
-29 -45 -42 -42 -75 14 -127 31 -29 45 -49 45 -68 0 -14 -4 -26 -9 -26 -15 0
-61 -52 -55 -62 4 -6 18 -8 32 -5 17 3 36 -3 54 -16 27 -20 31 -20 56 -6 17 9
28 25 30 41 2 15 10 32 18 38 18 16 18 71 -1 96 -8 10 -14 37 -14 59 0 40 0
40 72 75 81 40 117 82 117 138 0 30 -8 44 -49 82 -26 26 -69 55 -95 65 l-46
18 0 171 1 171 80 44 c255 141 264 259 40 508 l-100 110 10 74 c18 152 44 226
95 280 l35 35 -13 85 c-15 96 -24 103 -81 65 l-37 -25 0 62 0 62 -100 57 -100
57 0 -45z m100 -61 c50 -28 50 -28 50 -80 l0 -52 -32 10 c-18 5 -34 9 -35 9 0
0 -11 19 -22 43 -19 39 -29 97 -16 97 3 0 27 -12 55 -27z m-278 -60 c13 -27
56 -46 151 -67 l27 -6 0 -171 0 -170 -27 19 c-43 31 -186 182 -220 232 -56 82
-60 154 -10 178 39 19 65 14 79 -15z m274 -98 c29 -39 45 -45 37 -15 -3 11 0
20 6 20 6 0 11 -11 11 -25 0 -17 7 -28 22 -34 19 -7 27 -2 51 30 16 22 32 39
37 39 4 0 10 -20 13 -45 6 -41 3 -50 -28 -91 -40 -52 -68 -137 -86 -254 l-12
-82 -47 47 -48 47 -7 188 c-8 227 -3 245 51 175z m39 -665 c-2 -25 -7 -215
-11 -423 -5 -272 -10 -377 -18 -374 -7 2 -15 76 -23 208 -21 350 -51 533 -98
594 -32 42 -20 63 23 41 17 -9 33 -16 37 -16 3 0 5 21 5 46 l0 45 45 -38 c43
-37 45 -40 40 -83z m150 -115 c35 -60 39 -88 19 -130 -17 -36 -117 -115 -130
-102 -3 3 -3 83 1 177 l8 172 39 -39 c22 -21 50 -56 63 -78z m-245 -550 l0
-105 -39 20 c-47 24 -82 65 -74 88 8 24 85 102 100 102 10 0 13 -26 13 -105z
m84 -307 c11 -97 7 -240 -6 -236 -10 3 -14 44 -16 146 -3 141 9 191 22 90z
m95 -4 c39 -32 39 -45 2 -67 -45 -27 -51 -22 -51 38 0 30 4 55 9 55 5 0 23
-12 40 -26z m-91 -378 c2 -36 0 -47 -10 -44 -8 3 -14 24 -16 52 -2 36 0 47 10
44 8 -3 14 -24 16 -52z"/>
<path d="M362 1797 c-17 -20 -38 -85 -47 -142 -4 -27 -11 -53 -17 -56 -6 -4
-6 -13 1 -25 5 -11 17 -57 26 -103 17 -89 46 -160 53 -129 2 9 -2 27 -9 40
-21 37 -24 290 -5 363 16 63 16 74 -2 52z"/>
<path d="M2488 1705 c-4 -67 -10 -100 -19 -106 -12 -8 -12 -10 0 -18 11 -7 16
-40 19 -126 3 -84 8 -113 15 -106 15 15 15 427 1 441 -8 8 -13 -17 -16 -85z"/>
<path d="M2898 1794 c-12 -11 -10 -442 2 -449 6 -4 10 29 10 92 0 68 5 107 15
127 11 20 12 32 5 41 -6 7 -14 54 -18 105 -4 50 -10 88 -14 84z"/>
</g>
</svg>
